<?xml version="1.0" encoding="utf-8"?>
<!-- Generator: Adobe Illustrator 25.0.1, SVG Export Plug-In . SVG Version: 6.00 Build 0)  -->
<svg version="1.1" id="Layer_1" xmlns="http://www.w3.org/2000/svg" xmlns:xlink="http://www.w3.org/1999/xlink" x="0px" y="0px"
	 viewBox="0 0 3000 3000" style="enable-background:new 0 0 3000 3000;" xml:space="preserve">
<g>
	<path d="M1000.3,2073.8c-1.1-10.1-11.1-13.8-13.2-22.2c2.1-1.5,3.4,0.2,4.3,1.1c9.5,8.8,21.6,15,29.5,25.3
		c14.8,19.2,34.1,33.8,50.5,51.4c11.6,12.5,25.1,22.9,35.7,36.7c9.6,12.5,23.4,21.3,37.8,28.2c12.8,6.2,25,13.5,38.4,18.6
		c22.1,8.5,43.4,19.3,67.3,22.9c12.5,1.9,23.9,8.5,36.5,10.6c11.9,2,23.8,3.9,35.6,6.2c14,2.8,26.9,9.4,40.8,12.7
		c14.5,3.5,29,6.3,45,5.5c-3.9-5.9-9.9-7.6-15-9.7c-13.5-5.6-26.7-11.6-40.1-17.3c-13.1-5.6-27-9.1-41.1-11.2
		c-15.7-2.4-31.2-5.2-46-11.3c-10-4-20.9-4.9-31.1-8.6c-18.5-6.6-36.7-14-54.6-22c-15.9-7.1-31.5-14.9-46.2-24.2
		c-6.7-4.2-13-8.9-18.4-15c-9.7-10.9-19.7-21.5-27.1-34.3c-6.9-11.9-17.9-20.4-27.7-29.8c-4.1-4-8.1-8-11.3-12.9
		c-10.7-16.2-24.6-29.9-36.6-45.2c-9.2-11.7-18.6-23.3-25.6-36.5c-0.3-0.6-0.4-1.3-0.9-1.7c-9.4-9.4-13.9-21.7-19.5-33.4
		c-1.6-3.3-3.7-5.7-6.6-7.9c-4.3-3.3-7.7-7.5-10.3-12.4c-5.8-10.9-13.8-19.7-23.8-26.8c-2.5-1.8-4-4.2-4.8-6.9
		c-2.3-8.3-7.7-13.5-15.6-16.4c-1.1-0.4-1.4-2.1-3.1-2.1c-1.4,3.5,1,5.3,3.4,6.7c4.1,2.4,6.6,5.8,7.4,10.5c0.9,5,4.3,8.5,7.8,11.7
		c8.9,8.3,16.7,17.3,21.7,28.6c1.6,3.7,4.3,7.5,7.5,9.7c8.7,6.1,12.1,15.2,15.5,24.5c0.8,2.1,1.4,4.2,3,5.9
		c12.1,13.6,19,30.7,30.8,44.5c6.8,8,13.6,15.9,20.4,23.9c1,1.1,2.3,2.1,2.3,4.9c-4.6-1.8-8.2-4.1-11.3-7
		c-17.4-16.8-36.7-31-58.2-42.3c-5.8-3-10.6-7.6-15.5-12.1c-13.7-12.3-23.8-27.8-37.5-40.3c-10.4-9.4-21.3-18.8-30.7-29.7
		c-6.7-7.8-14.6-15-21.4-22.8c-9.3-10.7-21.9-18.6-27.6-32.4c-0.6-1.4-2-2.3-3.1-3.5c-1.6-1.6-3.5-2.9-4.7-4.8
		c-7.9-12.9-16.1-25.8-22.1-39.8c-1.4-3.2-2.6-6.4-4.3-9.4c-2.8-5-5.6-10-6.3-15.9c-0.3-3.2-2.1-5.9-3.3-8.9
		c-5.7-13.8-9.6-28.1-11.4-42.8c-0.4-2.9-0.5-5.7-1.8-8.3c-0.8-1.7-1.8-3.6-1.8-5.4c-0.2-11.5-5.5-22.5-5.2-33.7
		c0.3-11.1-2.8-21.7-2.1-32.9c0.6-10.2-0.7-20.7-0.5-31.1c0.3-15.4-1.5-30.9,0.8-46.4c0.5-3.6-1.1-6.9-2.3-10.1
		c-11.4-30.3-19.7-61.6-28.6-92.7c-3.5-12.1-3.6-25.1-5.3-37.7c-3.6-27.8,3.4-54.2,9.3-80.8c1.3-6.1,2.9-12.2,4.7-19.9
		c-8.2,6.8-13.1,14.2-18.9,20.7c-11.4,12.4-22.4,25.2-31,39.7c-7.9,13.4-13.9,27.7-20.4,41.8c-2.6,5.8-4.7,11.9-7.9,17.3
		c-8,13.5-10.7,28.3-11.5,43.7c-0.1,1.9,0,4-0.8,5.7c-1.3,2.9-2.9,5.7-6.5,6.3c-3.5,0.6-6.5-0.7-8.2-3.6c-2.4-4.1-4.5-8.3-8.3-11.4
		c-0.4-0.4-1-1.3-0.8-1.6c3.1-7.4-3.5-12.2-5.1-18.4c-1.5-6.1-3.6-12.2-5.7-18.2c-5.1-14.8-7-30.3-9.1-45.7
		c-4.2-31.6-4.7-63.4-3.5-95.2c0.9-24.5,4.2-48.7,8.3-72.7c2.6-15,4.6-29.7,3.8-44.9c-0.4-7.8,1-15.6-0.7-23.4
		c-0.9-4.2,1.4-8.1,2.3-12c3.5-15.1,4.6-30.7,7.9-46c5.7,4.6,1.3,12.7,5.5,16.4c1.4-17.3-3.2-35.3-0.7-53.9
		c1.5-10.7,1.8-21.4,6.3-31.5c0.5-1.1,0.8-2.5,3.2-2.6c1.8,3.5,0.3,7.7,1,11.5c4.6,24.4,6.8,49.1,7.1,73.8
		c0.3,16.2,0.2,32.4-1.2,48.6c-1.1,12.3-1.1,24.7-2,37.1c-1.3,16.8-4.8,33.3-7.7,49.8c-2.4,13.5-4.3,26.9-4.4,40.6
		c-0.3,27.2,0.1,54.5,2.3,81.6c1.6,19.7,3.2,39.6,7.9,59c4.1-1.2,2.9-4.9,4-7.3c7.3-16.2,14.6-32.3,23.6-47.8
		c15-25.7,30.9-50.9,43.7-78c9-19.2,18.5-38.2,26.6-57.8c5.9-14.4,10-29.5,13.6-44.6c1.2-5,3.1-9.7,4.4-14.6c1-4.1,3.3-7,7.6-7.5
		c3.5-0.5,8.4,3.7,9.4,8.3c1.1,5,2.1,10.1,2,15.1c-0.2,16.9,1.9,33.7,0.4,50.6c-1.9,21.5-5.2,42.8-8,64.2
		c-3.2,24.3-6.1,48.6-4.8,73.1c0.9,17.9,2,35.8,5.5,53.6c2.3-1.3,3.2-3.1,2.5-5c-1.6-3.9-0.6-7.6,0.4-11.2
		c2.8-10.4,2.3-21.4,5.7-31.7c0.6-1.7,0.5-3.8,0.2-5.6c-0.4-2.6-0.3-5.2,0.4-7.6c3.6-12.8,4.3-26.2,9.2-38.6c1-2.4,1.1-4.9,1.7-7.3
		c3.6-13.4,7.6-26.7,13.3-39.4c2.1-4.6,4.7-8.9,6.3-13.8c1.4-4.3,3.4-8.5,6.5-11.6c4.6-4.6,7.4-10.2,11.3-15.3
		c6-7.8,11.4-16.3,18.4-22.9c11.6-11,16.2-24.8,20.2-39.2c7.8-27.8,12.2-56.4,18.4-84.5c4.2-19.2,9.9-38,17.9-56.1
		c16.9-38,39.3-72.2,67.4-103c10.9-12,23-22.7,35-35.7c-8.7,1-15,4.6-21.7,7.1c-15.1,5.7-30.4,11.1-46.6,12.6
		c-7.2,0.7-13.4,4.1-19.4,7.2c-12.4,6.4-24.3,13.7-36.1,21.2c-6.3,4.1-11.9,9.5-17.7,14.4c-22.9,19.6-46.1,38.9-68,59.7
		c-11.9,11.2-20.9,24.8-31.6,36.9c-6.9,7.8-12.8,16.6-19.7,24.4c-21.9,24.8-37.4,53.5-51.2,83.3c-4.1,8.9-10,16.9-13.9,26
		c-1.6,3.7-4.4,6.4-9,4.8c-4.2-1.4-5.9-4.8-5.4-9c0.8-7.2,2.2-14.4,3-21.7c3-27.4,7.1-54.7,12.4-81.8c3.3-16.7,8.1-33.2,12.3-49.8
		c7.4-29,19.7-56.1,31.2-83.5c10.5-25.2,21.9-50,30.6-75.9c4.3-12.6,9.3-25.1,20.7-33.4c3.6-2.7,4.7-7.6,9.4-10.4
		c-0.5,7.4-3.4,13.6-5.7,19.8c-6.3,17.3-13.2,34.3-20,51.4c-5.3,13.2-10.8,26.4-16.2,39.6c-8.5,20.5-17.8,40.7-25.5,61.5
		c-8.1,22-14.1,44.6-18.8,67.6c-2.5,12.1-4.9,24.2-7.5,36.3c-1.6,7.4-2.3,15-1.9,23.1c1.6-3.1,3.4-6.1,4.7-9.2
		c9.7-23.2,22.6-44.7,34.5-66.7c10.5-19.4,23.7-36.9,37.5-53.9c10.8-13.3,22.2-26.2,35.1-37.6c24.7-22,50.2-43,78.1-61
		c17.8-11.5,36.5-21.4,56.2-29.7c26.4-11.2,53.6-19.3,81.1-26.9c28.1-7.7,56.4-15,83.1-27c21.1-9.6,41.4-20.7,60.4-34.2
		c16.3-11.6,31.8-24.2,46.8-37.6c2.9-2.6,6.3-4.2,9.4-6.5c3.4-2.6,7-3.3,10.3,0c3.1,3.2,4.3,7.1,1.9,11.3c-2.8,5-5.3,10.1-8.7,14.7
		c-19.4,25.4-41.6,48.1-66.9,67.6c-11.3,8.7-23.3,16.6-35.1,24.6c-26.9,18.3-51.6,39.1-72.7,64c-20.8,24.6-40.5,49.9-58.1,76.8
		c-12.2,18.6-23.2,37.9-33,57.9c-4.6,9.4-9.6,18.6-13.7,28.2c-0.8,1.9-2.4,3.9-0.9,6.9c2.5-3.4,6-5.5,7.5-9.4
		c3.8-9.9,11.2-17.7,16.4-26.8c7-12.3,15.1-24.1,22.7-36.1c4.6-7.2,10.8-13.3,14.3-21.3c0.5-1.2,1.2-3.2,3.4-2.5
		c7,2.4,11.5-2.1,15.7-6.2c12.9-12.5,28.5-21.2,43.2-31.1c8-5.4,17.1-8,26.8-8.9c27.8-2.6,55.3-7.2,82.9-11.7
		c14-2.3,25.8-10.2,38.5-15.7c24.6-10.6,46.3-26,68-41.3c9.9-7,21.9-10.3,31.8-17.1c13.3-9,28.4-8,43-9.8
		c20.2-2.5,40.3-5.2,59.5-11.8c13.4-4.6,26.5-9.9,38.1-18.8c17.8-13.7,39-19.9,60.9-22.1c9.1-0.9,18.8,2,28.2,3.5
		c11.6,1.8,23.2,1.9,34.7,3.1c9.8,1.1,19.7,2.8,29.4,1.6c8.9-1.1,17.6-1.1,26.5,0.1c3.5,0.4,7.2,0.5,10.1,2.2
		c6.4,3.8,13.3,3.7,20.3,3.7c9.9,0,19.7,0.3,29.6,0.5c1.3,0,2.6,0.2,3.8-0.1c2.8-0.6,7.5,0.7,7.2-3.9c-0.2-3.7-3.8-5.8-7.6-5.9
		c-5.4-0.2-10.9-0.4-16.2,0.3c-10.5,1.4-20.6,0.9-31.1-1.1c-13.3-2.5-26.9-4.7-40.6-2.2c-11.2,2.1-22.2-0.7-33.2-1.8
		c-7.8-0.7-15.4-3.3-23.1-4.9c-14.5-3.1-29.4-4.9-44.2-5.9c-10.2-0.7-19.7,4.6-29.6,6.6c-12.9,2.6-24.1,9.3-35.6,15.4
		c-18.6,9.9-38.1,16.6-58.9,20.5c-14.3,2.7-28.8,5.4-43.1,6.3c-20.2,1.2-39.4,6.2-58.9,10.6c-13,3-25.1,8.9-36.9,15.1
		c-2.2,1.2-3.9,3.2-5.8,4.9c-1.4,1.2-2.7,3.2-4.4,3.6c-13.8,3.6-21.6,15.5-32.3,24c22.9-8.9,45.8-17.8,68.9-26.8
		c0.1,3.7-2.7,4.2-4.4,5.3c-25.8,18.1-53.2,33.2-81.9,45.9c-7.9,3.5-16.5,4.5-24.9,5.8c-20.1,3-40,7.2-60.3,8.1
		c-21.9,1.1-41.2,9.1-58,23.2c-2.2,1.8-4.7,3.2-8,5.4c1.3-5.3,4.4-8.3,7.7-11c12.8-10.3,25-21.5,38.8-30.3c10.8-7,21.6-14.2,33.2-20
		c9.6-4.8,19.5-8.9,28.9-14.2c9.1-5.1,19.3-8.1,29-12c1.8-0.7,3.8-1,5.3-2c11-8.1,24.5-10.2,36.7-15.4c6.4-2.7,12-7.2,19-8.7
		c2.1-0.5,2.9-2.3,3.8-4c8.8-15.6,19.9-29.3,32.7-41.7c5.5-5.3,10.3-11.3,15.7-16.6c17.5-17,36.1-32.5,57.9-44.1
		c10.8-5.7,20.5-13.8,30.9-20.5c20.3-13.1,41-25.4,62.8-35.8c10-4.8,19.4-10.9,29.7-15c0.8-0.3,1.7-0.9,1.3-2.9
		c-7.9-1.3-15.8,1.5-23.7,2.2c-25,2.2-49.9,4.7-75,1.7c-6-0.7-12.1-0.3-18.1-0.5c-15.2-0.5-30.4-2.4-45.7-1.6
		c-24.7,1.3-49.5,2.2-74.2,4c-8.8,0.6-17.4,3.3-26.1,5c-15,2.9-29.2,8.6-43.9,12.2c-1.5,0.4-3.1,0.8-4.5,1.6
		c-14.4,7.6-30,12-44.7,18.6c-6.1,2.7-12.3,5-18.6,7.4c-1.8,0.6-3.8,0.6-5.6,0.9c-3.4,0.4-6.5-0.1-8.4-3.2c-2-3.3-0.1-6.1,1.8-8.7
		c5.3-7.3,12.8-12.3,19.4-18.2c10.9-9.7,22.4-18.7,33.9-27.7c17.5-13.7,36-26,54.4-38.4c10-6.7,20.5-12.6,30.6-19.3
		c10.2-6.8,21.8-11.8,33.2-16.6c18.7-7.9,38.1-14.1,57.8-18.6c23.7-5.4,47.7-10,71.5-15.1c22-4.7,44.4-7,66.7-10.3
		c21.3-3.2,42.7-5.9,64.2-8.3c21.5-2.3,43.1-4.4,64.7-2.7c9.8,0.7,20.3,1.5,29.6,8c-17.3,3.1-33.1,9.3-49.4,13.2
		c-28.9,7-57.4,15.8-87.3,18.9c-20.7,2.1-41,7.8-61.4,12.9c-23,5.7-46,11.7-68.3,19.7c-8.3,3-15.6,7.9-23.8,13.8
		c7.1,2.6,12.7-0.7,18.3-1.2c13.9-1.5,27.8-2.3,41.8-2.8c15.3-0.6,30.6,0.2,45.8-0.8c30.1-2,60.2-2.7,90.2-6.5
		c27.5-3.5,54.4-8.7,80.7-17.9c13.1-4.6,26.6-8.2,40-11.9c6.1-1.7,12.4-2.5,18.7-3.5c4.6-0.7,8.8-0.4,11.8,4.2
		c2.9,4.6,0.3,8.1-2.2,11.2c-6,7.3-12.6,14.2-18.8,21.4c-21.1,24.6-46.5,44.1-72.4,63.2c-25,18.5-52.6,31.6-81.6,42.2
		c-18.5,6.8-38,9.4-57.4,12.1c-22.3,3.1-44.3,8-65.5,15.7c-9.3,3.4-16.7,10.2-24.5,16.2c-15.6,12.1-31.1,24.2-45,38.2
		c-7.6,7.7-14.3,16.1-21.6,25.3c6.7-1.5,11.9-3.7,17.1-6.8c10.1-5.9,20.7-10.8,31.4-15.8c8.9-4.2,18.4-6.6,27.2-10.7
		c1.7-0.8,3.5-1.9,5.3-2c12.5-1.4,24.1-7.9,37.1-6.5c3.3,0.3,6.8-1.1,10.2-2c3.8-1.1,7.5-1.3,11.3-0.2c1.2,0.4,2.6,0.8,3.7,0.5
		c10.8-3.3,21.5,0,32.2,0.4c9.3,0.4,18.8,0.3,28,2.8c4.7,1.3,9.2,0.7,14-1c7.2-2.4,14.5-5,22.3-2.8c2.1,0.6,3.7-0.6,5.4-1.1
		c5.5-1.8,11.2-2.4,17-2.1c1.6,0.1,3.4,0.5,4.7,0c11.2-4.2,23.4-4.3,34.6-4.3c14.6,0,29.4-6.6,43.8,0.5c12.8-0.6,25.5,1.2,37.7,4.2
		c14.1,3.4,28.3,6.2,42.3,10.7c12.7,4.1,24.5,10,37.2,14c3.9,1.2,7.5,3.3,11,5.5c10.1,6.3,20,10.7,32.9,8.8
		c10.1-1.5,20.9,0.3,31.3,1.6c15.1,1.8,30.3,2.4,45.4,4.9c21.9,3.6,43.7,7.6,65.4,12.2c9.6,2,19.3,3.6,28.9,5.9
		c9.5,2.2,19.1,4.5,28.5,7.2c21.8,6.3,43.4,13.9,64.9,21.2c19.3,6.6,37.7,15.5,55.1,25.8c20.6,12.3,39.5,27.5,57.7,43.3
		c17.6,15.2,34,31.5,51,49.9c0-3.8,0.5-6.5-0.1-8.9c-3.9-18.3-6.4-36.9-13-54.5c-4.1-11-10.2-21.1-18-30c-13-14.8-26.8-29-41.9-41.7
		c-11.2-9.5-23.6-17.3-37-23.4c-30.3-13.8-61.9-23.9-93.5-34.2c-24-7.9-47.8-16.7-71.3-26c-9.3-3.7-17.5-10.1-26.3-15
		c-18.9-10.4-37.8-20.8-54.4-34.7c-24.4-20.4-48.3-41.3-68.9-65.7c-8.2-9.7-16.7-19-26.6-27c-0.5-0.4-1.1-0.7-1.6-1.1
		c-4.3-4-5-10.6-1.5-14.5c2.9-3.3,8.4-3.5,12.9,0.2c7.6,6.2,15.1,12.6,22.8,18.7c19.6,15.4,41.1,27.6,62.6,39.9
		c14.4,8.2,28.9,16.3,44.5,21.5c17.1,5.8,34,11.8,51.8,15.7c23.6,5.1,47.6,7.6,71.3,11.4c10.9,1.7,22.1,2.2,33.1,3.4
		c21.4,2.3,42.8,5.2,64.1,8.3c26.5,3.9,52.1,10.5,77.8,17.7c13.5,3.8,25.9,10.2,38.4,16.3c5.9,2.9,11.9,5.8,18.6,9
		c-2.8-6.6-8.1-9.3-12.2-13.2c-12.7-11.9-26.5-22.6-40.8-32.5c-13.3-9.1-27.6-16.5-42-23.9c-16.1-8.2-33.3-13.9-50.2-19.4
		c-26.5-8.5-50.2-22.1-74.5-34.8c-4.5-2.4-7.7-6.3-10.8-10.4c-5.7-7.4-11.9-14.5-18.4-21.6c46.9,31.4,98.2,52.7,151.8,69
		c-8.7-6.2-16.9-12.8-26.8-17.1c-9.8-4.2-19.3-9.5-28.7-14.6c-11.2-6-22.6-11.5-34.6-15.2c-21.6-6.7-39.8-19-57.7-32
		c-16.6-12.1-32.6-25-49-37.4c-4.3-3.2-7.5-7-8.5-12.2c-1.2-6.3-3.6-12-6.6-17.9c2.3-1.1,3.1,0.7,3.9,1.6
		c15.5,16.6,33.8,29.1,54.3,38.8c18.6,8.8,37.9,15.6,57.2,22.7c23.4,8.6,46.2,18.6,68,30.8c17.7,9.8,36,18.6,53.8,28.3
		c24.6,13.3,46.9,30,67.5,48.5c8.6,7.8,17.1,16,25.2,24.4c9.5,9.8,20.5,18,31.2,26.4c18.5,14.4,35.9,30,50,48.6
		c7.2,9.5,13.5,19.9,18.2,31.1c6.4,15.4,13.1,30.7,19.6,46.1c1,2.3,1.5,4.8,2.7,8.7c-7.2-4-11.9-8.9-16.7-13.4
		c-3.2-3-5.5-7.2-9.1-9.4c-6.9-4.3-9.6-11.4-11.9-17.9c-3.8-10.6-9.7-19.7-15.5-29c-7-11.3-15.3-21.7-24.8-31.2
		c-0.9-0.9-1.5-2.1-2.5-2.8c-2.3-1.5-4.9-4.2-7.6-1.6c-3.2,3.1,0.4,4.8,2.2,6.9c14.6,17.9,27.8,36.5,36.5,58.4
		c5.4,13.5,16.1,23.9,26.7,33.8c14.9,13.9,28.5,28.7,39.9,45.7c3.8,5.6,5.3,12,8.5,17.8c9.7,17.4,18.9,35,27.6,52.9
		c10.3,21,18.8,42.6,23.3,65.8c7.7,39.8,10.5,79.9,9.5,120.4c-0.1,6-0.4,12-2.8,17.9c-2.6-2.3-1.2-5.1-1.2-7.5
		c-0.1-19.7-1.5-39.2-5.7-58.6c-3-13.6-4.4-27.5-5.9-41.3c-2.6-23.4-9.9-45.4-19.9-66.9c-10.6-22.8-23.1-44.2-36.8-65.1
		c-6.8-10.3-14.8-19.7-22.7-29.2c-9.7-11.6-18.4-24.1-28.6-35.2c-9.6-10.5-20.1-20.1-31.2-29.1c-11.8-9.7-25.3-16.9-36.6-27.3
		c-2.5-2.3-5.8-3.8-8.6-5.9c-21.9-15.7-44.2-30.8-69.5-40.7c-7.9-3.1-15.6-6.8-24.2-8.3c-5.9-1-11.6-3.1-17.3-5
		c-14.2-4.5-28.9-7.1-43.9-7.8c-6.3-0.3-12.6-1-20.7-1.7c7,4.6,12.7,8.3,18.4,12c24.3,15.6,47.4,32.8,69.3,51.7
		c11,9.6,23.2,18,33.1,28.8c17.2,18.7,34.2,37.8,45.8,60.6c5.8,11.5,9.5,24.1,13.6,36.5c5.6,17.2,10.4,34.6,16,51.8
		c7.9,24.7,14.8,49.8,25.2,73.7c2.5,5.8,6,11.1,8.8,16.8c2.9,5.8,4.3,11.8,3.7,18.4c-0.9,10.4,3.4,20,6.4,29.6
		c4.6,15.2,8.6,30.6,11.2,46.2c0.7,4.1,0.9,8.3,2.3,12.1c5.4,15.2,5.7,31.2,6.5,47c0.7,14.6,1,29.2,2.6,43.8c0.2,2.2,0,4.4,0,7.1
		c-6-1.6-9.6-5.6-13-9.5c-4-4.5-7.7-9.2-11.2-14.2c-3.9-5.5-7.5-10-15.3-11.2c-5.2-0.8-9.5-5.9-12-11.4c-6-12.9-12.3-25.7-18.4-38.5
		c-14.6-30.5-34.1-57.9-53.4-85.5c-7.8-11.1-15-22.8-23.7-33.1c-8.8-10.5-16.8-21.7-25.9-31.8c-12.1-13.5-22.8-28.1-33.7-42.4
		c-17.2-22.5-36.8-42.8-59.1-60.3c-13.9-10.9-27.5-22.4-42.8-31.4c-21.2-12.5-41.7-26.3-66.2-32.3c-32.1-7.9-64.5-10-97.3-8.8
		c-0.5,0-1,0.5-2.3,1.3c10.7,7.2,21.2,14.1,31.4,21.2c25.4,17.6,49.5,36.8,72.3,57.6c22.6,20.6,44,42.3,63.7,65.6
		c2,2.4,4.7,4.3,7,6.5c2.8,2.6,6.1,4.9,8.2,8c8,12.4,19.3,21.7,29,32.6c6.9,7.8,13.3,16.1,19.6,24.4c1.8,2.3,3.9,4.2,5.6,6.5
		c9.7,12.8,20.5,24.8,28.3,39c1.2,2.3,2.6,4.3,4.4,6.2c1.3,1.4,3,2.7,3.7,4.3c4.7,10.8,13.4,19.3,17.7,30.3c1.6,4.1,5.4,6.3,7.2,10
		c5.4,11.1,12.5,21.3,17.7,32.4c7.9,16.5,14.6,33.6,21.2,50.6c3.8,9.7,5.1,20.2,8.8,30.1c5.1,14,7.6,28.7,12.4,42.8
		c3.3,9.8,4,20.4,6.5,30.6c3.4,13.8,6.9,27.7,8.6,41.7c1.6,13.4,8.2,26.1,5.9,40.1c-0.3,2,1,4.3,1.6,6.4c1.2,3.7,2.4,7.6,1.7,11.2
		c-2.1,11.9,0.6,24-1.9,35.9c-0.4,1.8-0.5,3.9,0,5.6c2.1,7,0.1,13.8-0.1,20.7c-0.3,11.6-3.1,23-2.4,34.6c0,0.6,0.1,1.3,0,1.9
		c-3,12.3-1,25.2-3.8,37.5c-2,8.7-0.3,17.5-1.5,26.4c-2.6,18.3-8,35.7-14.1,53.1c-4.7,13.4-10.2,26.6-14.6,41.1
		c4.4-1.1,5.9-4.2,7.5-6.9c3.4-5.5,8.2-9.6,13.3-13.5c2.6-2,6.2-4.5,9.3-1.8c3.3,2.8,1,6.2-0.5,9.5c-7.5,15.8-17,30.3-26.7,44.9
		c-8.8,13.3-16.5,27.2-22,42.1c-6.2,16.7-9.2,34.2-11.8,51.7c-3.2,21.9-4.1,44.1-6,66.2c-1,11.7-1.4,23.5-2,35.2
		c-0.1,1.3-0.5,2.5,1.1,3.6c20.9-17.9,45.2-30.1,71-39.5c24.5-8.9,49.9-14.4,75.1-20.4c25.9-6.1,49.8-16.7,72.8-29.6
		c12.3-6.9,22.4-16.9,31.9-27c5.7-6.1,7-15.5,8.9-23.8c3.4-15.1,7.1-30.2,6.9-45.9c-0.1-6.8,2.7-13,4-19.6
		c4.6-23.8,6.9-47.7,6.2-73.3c7.2,17,4.9,88.8-3.6,133.5c2,1.9,3.2-0.8,4.8-1.1c2.5-0.6,4.5,0,5.9,1.8c1.4,1.8,0,3.6-0.8,5.3
		c-2.4,5.3-5.8,9.8-9,14.6c-1.6,2.3-3.4,4.7-1.3,7.7c3.2,4.4,0.9,8.4-0.8,12.6c-8.1,20.2-19.7,38.1-34.4,54.4
		c-6.4,7.1-10.7,16.5-14.6,25.4c-10.6,24.1-25.8,44.5-45.3,62.2c-11,9.9-20.8,21-29.1,33.4c-4.3,6.4-5.8,14-9.5,20.7
		c-8.5,15.6-18.5,30.1-30,43.7c-1,1.2-2.6,2.1-3.2,3.4c-1.1,2.6,0.1,4.3,3,4.5c2.4,0.1,4.5-1.3,5.8-2.9c7.3-8.8,15.9-16.5,21.9-26.3
		c5.6-9.1,11.5-18,16.9-27.2c2-3.5,3.3-7.4,4.5-11.3c3.7-11.4,13.8-17.7,21.3-26.1c4-4.4,8.4-8.6,13.8-11.4c1.5,1.5,0.5,2.9-0.1,4.3
		c-8.7,22-17,44.2-28.9,64.8c-11.4,19.7-26.2,36.1-43.7,50.7c-24.5,20.4-49.5,40.2-71.6,63.4c-9.3,9.8-20.7,17.8-31.7,25.8
		c-13,9.4-26.3,18.5-40.6,25.8c-9.8,5.1-19.6,10.2-29.5,15.3c-12.6,6.6-25.1,13.4-37.9,19.7c-12.7,6.3-25.6,12.3-39,17.2
		c-17.5,6.3-35.2,12.2-52.2,19.5c-23.2,10-45.7,21.5-64.2,39.4c-1.8,1.8-3.5,3.7-5.3,5.5c-1.5,1.5-2.5,3.6-5.9,4.1
		c4.3-7.4,5.9-15.1,8.2-22.5c2-6.3,7.9-9.1,12.5-12.7c16.4-12.9,33.3-25.1,50.1-37.6c18.6-13.9,39.1-23.9,61.2-31.1
		c11.3-3.7,21.9-9.9,32.7-15.2c15.8-7.9,31.5-15.9,46.2-25.6c1.6-1,3-2.3,4.2-3.8c-54.4,17.1-106.8,38.3-154.5,71.6
		c0.1-1.9-0.1-2.7,0.2-2.9c5.7-5.4,11.5-10.8,15.8-17.5c6.3-9.8,16.4-14.4,26.1-19.6c11.2-6,22.4-11.8,33.6-17.8
		c7-3.7,14.8-5.6,22.2-8.2c11.9-4.2,23.5-8.9,35.5-13c23.5-8,45-20,65.3-34c16.9-11.7,32.3-25.4,47.6-39.2
		c11.7-10.6,23-21.5,33.4-33.3c14.9-16.9,27-35.9,39.4-54.6c11.6-17.4,24-34.2,36.2-51.1c7.8-10.9,16.4-21.3,25.1-32.5
		c-4.2-0.5-6.9,1.4-9.3,2.9c-22.5,14-47.1,23.6-70.9,34.9c-24.4,11.6-48.7,23.1-72.3,36.3c-31,17.3-58.9,38.6-83.9,63.7
		c-18.1,18.2-35.2,37.4-53.3,55.6c-18.7,18.9-37,38.4-56.8,56.1c-12.5,11.2-25.5,21.8-39.8,30.9c-8.3,5.3-15.9,11.7-25.4,14.7
		c-1.5,0.5-2.9,1.5-4.4,1.7c-4.6,0.7-8.2-1.4-10.5-5.1c-2.3-3.8-1-7.4,2.4-10.1c6-4.6,11.9-9.6,18.3-13.7
		c17.5-11.3,32.1-25.9,47-40.2c11.4-10.9,19.7-23.9,27.9-37.2c10.7-17.4,17.9-36.3,24.9-55.3c9.9-26.8,16.7-54.5,24.2-82
		c5.8-21.4,13.2-42.4,20.1-63.6c12.6-39.1,31.3-75.5,49.9-111.9c0.2-0.5,0.1-1.2,0.1-2c-1.8-0.4-2.7,1.1-3.4,2.1
		c-5.7,8.3-11.9,16.4-17.4,24.8c-6.2,9.5-11.8,19.7-18.2,28.8c-8.4,12-16.3,25.1-28.9,33.8c-1.9,1.3-3.3,2.9-4.4,4.9
		c-2.9,5-6.8,9.5-11.5,12.7c-10.1,6.7-18,15.9-27.6,23.2c-9.2,7-20.2,12.2-27.5,21.7c-0.2,0.2-0.4,0.5-0.7,0.6
		c-23.8,13.9-41.3,35.5-62.6,52.5c-34.2,27.2-70,51.8-108.2,73c-11.6,6.4-24,11.7-33.2,21.8c-0.4,0.5-1,0.9-1.5,1.1
		c-12,3.8-19.6,14.9-31.3,19.2c-2,0.7-3.6,2.5-5.3,4c-1.5,1.2-2.5,3.2-4.1,3.9c-12.2,5.6-20.3,17.1-32.7,22.5
		c-2.5,1.1-4.4,3.5-6.5,5.5c-4.4,4.2-9.1,7.8-15,9.9c-3.6,1.2-7.1,2.7-9.6,5.9c-1.2,1.4-2.8,2.8-4.5,3.5
		c-10.1,4.4-19.4,10.3-29.2,15.4c-6.7,3.5-13.8,6.6-20.8,9c-14.3,4.8-28.5,10.8-43.8,12.1c-2.2,0.2-4.3,1.1-6.4,1.7
		c-2.7,0.8-5.4,2.3-8.2,2.4c-15.4,0.5-30.3,6.7-46,3.4c-2.7-0.6-5.7-0.2-8.6-0.1c-2.9,0-5.9,0.8-8.6,0.1
		c-10.2-2.6-20.8-1.2-30.8-3.9c-7.8-2.1-16.1-0.1-23.5-3c-11.6-4.4-23.9-6.5-35.8-9c-18.8-3.8-37.3-9.4-56.6-11.4
		c-12.1-1.2-24.4-2.8-36.5-4.3c-12.2-1.5-24.5-3.3-36.6-5.1c-15.8-2.4-31.9-5.2-46.2-13.4c-1.4-0.8-2.7-1.7-4.3-1.9
		c-12-2.1-23-7.5-33.7-12.4c-12.8-5.7-26-10.9-37.9-19.3c-8-5.6-17.6-9.9-26.3-14.8c-12.8-7.3-27.4-11.8-38-22.8
		c-3.8-4-9.8-4.3-14-8c-4.9-4.4-10-8.6-16.5-11c-3.4-1.2-6.3-4.3-8.8-7.1c-7.8-8.5-16.9-15.3-26.8-20.9c-2.1-1.2-3.2-3-4.2-4.9
		c-0.9-1.7-1.9-4.3-3.5-4.3c-7.4,0.2-6.9-5.8-8.5-10.2c-5.4-15.7-17.3-22.4-32.8-22.4c-10.1,0-19.2-2.3-28.6-5.3
		c-17.3-5.5-34.9-8.5-53.2-9.1c-22.4-0.8-45.1-1.2-67.1-6.8c-9.8-2.5-19.5-5.1-28.8-9.3c-15-6.8-30.5-12.3-45-20.2
		c-16.5-9-31.9-19.4-46.8-30.8c-16.3-12.5-32.7-24.9-50.7-36.4c-1.3,7.5,0.7,13.9,1.4,20.3c2.4,23.7,4.6,47.4,10.7,70.5
		c5.6,21,14.4,40.7,26.3,58.8c13.3,20.1,26.4,40.5,41.3,59.5c15,19.1,31.9,36.6,54.1,48.1c19.1,9.9,38.3,19.1,58.8,25.9
		c31.3,10.3,61.3,23.7,89.6,40.6c4.4,2.6,7.7,6.2,10.9,10.4c5.6,7.4,11.6,14.5,18.2,21.4c-47-31.5-98.4-52.7-152.1-68.8
		c9.3,5.7,17.7,12.6,27.7,17.3c9.7,4.6,19.2,9.7,28.7,14.5c12.1,6.2,24.4,11.7,37.4,16c16.7,5.4,31.6,14.4,45.6,24.7
		c19.7,14.4,38.8,29.5,58.3,44.1c4,3,6.7,6.8,7.8,11.6c1.5,6.4,3.8,12.6,7,18.6c-2.7,0.5-3.6-1.5-4.8-2.7
		c-15.2-16-33-28.2-52.9-37.8c-18.9-9.1-38.5-15.8-58.1-23.1c-27.2-10.2-53.6-22.1-78.8-36.8c-15.8-9.2-33-16.3-48.8-25.6
		c-25.6-15.2-49.5-32.7-70.5-53.9c-15.2-15.3-31.3-29.6-48.4-42.7c-18.4-14-35.5-29.5-49.3-48c-8.5-11.3-15.5-23.8-20.9-37.2
		c-5.4-13.4-11.2-26.7-16.8-40.1c-1-2.3-1.9-4.6-1.2-7.3c9.6,4.4,14.9,13.6,22.8,19.8c7.5,5.9,10.7,14.3,14.4,22.7
		c4.2,9.4,9.6,18.4,15.2,27.2c6.8,10.7,14.8,20.5,23.6,29.6c1.5,1.6,2.7,3.4,4.8,4.5c2.1,1.1,4.2,2.3,6,0.2c1.9-2.1,0.4-3.7-1.2-5.6
		c-3.2-3.9-6.7-7.5-9.8-11.6c-11.1-15-21.1-30.4-28.1-48c-5.3-13.2-15.6-23.6-25.9-33.1c-15.7-14.5-30.1-29.9-41.5-47.9
		c-3.8-6-6.3-12.9-9.3-19.4c-0.4-0.9-0.4-2-0.9-2.7c-9.9-13.7-15.9-29.5-23.6-44.3c-6.6-12.6-12.3-25.6-16.9-39.1
		c-8.4-24.5-11.3-49.8-14.5-75.3c-2.7-21.5-3.2-43.1-3.2-64.7c0-9.9,1.3-19.5,2.7-30.3c2.1,4.7,1.4,8.5,1.5,12.2
		c0.5,19.4,2.5,38.5,6.1,57.6c2.1,11.4,4.4,22.9,5.3,34.7c1.6,20.8,5.7,41.4,15.1,60.5c6.9,14.2,12.8,28.9,20.7,42.6
		c14.7,25.6,31.6,49.5,51.1,71.7c10.3,11.8,19.4,24.8,28.7,37.5c16.7,22.7,32.6,46,47.8,69.7c1,1.5,2.1,3,5.2,3.2
		c-2.8-6.7-5.7-12.9-8.1-19.3c-12-31.7-26-62.7-35.9-95.2c-4.9-16.1-9.2-32.3-12.5-48.9c-2.8-14-6.8-27.7-9.6-41.7
		c-3.7-18.3-8.5-36.4-8.8-55.3c-0.1-3.9,0.8-7.6,2.1-11.1c2.6-6.9,8.7-8.5,14.5-4c4.3,3.4,8,7.6,10.4,12.3
		c7.3,14.2,17.1,26.7,27,39.1c9.1,11.3,20.1,20.2,32.1,28.1c14.9,9.7,30,18.9,46,26.8c22.4,11.1,44.5,22.9,67,33.9
		c14.6,7.1,30.9,9.5,46.4,14c24,7,49,10,72,20.9c15,7.2,28,17.2,41.3,26.8C997.2,2071.3,998.3,2072.3,1000.3,2073.8z M1926.7,2084.4
		c5.6-8.5,11.2-17.1,15-26.5c3.9-9.7,11.3-16,19.4-21.6c6.2-4.3,12.5-8.7,19.1-12.4c5.2-3,8.2-8,13.1-10.9
		c12.5-7.5,24.2-15.8,35.2-25.5c11.4-9.9,24.2-18.1,34.4-29.5c7.5-8.3,14.6-16.8,21.1-25.7c4.1-5.6,9.6-10.2,12.4-16.7
		c3.7-8.4,8.7-16.1,13-24.1c7.7-14.3,11.3-29.5,14.6-44.9c1.3-5.9,2.5-11.5,4.8-17.2c2.9-7.3,6.7-14.5,8.6-22.1
		c4.5-17.4,10.8-34.5,12.7-52.5c1.2-11.5,1.8-23.2,0.2-34.8c-1.4-10-1.8-20.3,0.9-30.2c2.7-9.8,4.2-19.9,5.6-29.8
		c2.4-17.1,5.9-33.9,7.6-51.1c1.4-14.4,4.4-28.7,4.4-43.3c0-4.9,3.5-9.2,2.9-13.9c-1.3-9.5,2.1-18.5,2-28
		c-0.2-16.7,1.8-33.5,3.1-50.2c1.5-19.6-3.7-38.4-6.8-57.3c-1.9-11.7-3.4-23.7-6.9-35.1c-3.5-11.5-4.7-23.9-10.2-34.5
		c-9.9-19.1-16.5-39.7-26.3-58.9c-6.9-13.5-13.4-27.5-22-39.9c-7.3-10.6-12.1-22.2-18.1-33.3c-5-9.1-10.7-17.9-15.7-26.9
		c-6.9-12.3-16.2-23.3-22.8-35.9c-0.6-1.1-1.6-2-2.5-2.9c-8.6-8.3-17-16.8-27.5-23.2c-6.6-4-14-6-20.3-10.3
		c-8.3-5.8-17.8-9.6-26.5-14.8c-2.7-1.6-33.7-23.9-35.9-26.2c-0.6-0.7-1.3-1.4-1.9-2.2c-10.6-13.3-19.5-27.9-30.1-41.3
		c-6.3-7.9-12.7-15.7-19-23.6c-6.8-8.6-11.9-18.8-20.8-25.8c-1.2-0.9-2.1-2.5-2.7-3.9c-3.4-8.5-10.6-14.1-16.3-20.7
		c-3.2-3.8-6.3-7.9-10.2-11.2c-14.9-12.5-33.5-15.8-51.4-20.8c-8.6-2.4-17.7-1.2-26.2-3.9c-15.9-5-31.8-10.2-47.7-15.2
		c-6.4-2-12-5.6-18.4-7.7c-12.9-4.2-26.6-5.6-38.9-12c-5.4-2.8-11.4-3.7-17.5-3.7c-2.2,0-4.5-0.3-6.6-1c-10-3.1-20.5-3.2-30.6-4.2
		c-9.2-0.9-18.8-1.5-28.2-1.7c-13.3-0.3-26.4-0.7-39.6,1.5c-16,2.6-31.2,8.2-46.2,13.6c-13.2,4.7-26.6,7.9-40,11.2
		c-9.8,2.4-19.9,4.3-29.4,7.1c-10.4,3.1-21.2,5.8-31.6,9.3c-19.2,6.5-36.7,16.9-55.8,23.5c-6.8,2.3-14.1,3.7-20.5,7.4
		c-10.2,5.9-21.6,9.1-32.5,13c-10,3.7-20,7.8-30,11.7c-15,5.8-29.4,13.2-44.4,19.2c-8,3.2-16.4,4.6-24.3,7.9
		c-11.2,4.6-23.2,6.5-34.7,9.5c-8.2,2.1-16.5,4.8-25,5.6c-9.5,0.9-18.7,3.7-27.7,6.2c-9.9,2.7-20.4,4.2-29.7,9.5
		c-2.4,1.4-5.5,1.4-8.2,2.3c-8.7,2.8-17.1,6.2-25.6,9.6c-1.7,0.7-3.5,2-4.3,3.5c-3.4,6.1-8.7,10.9-11.9,17.2
		c-2.6,5.1-5,10.2-7.6,15.3c-6.4,12.7-14.5,24.5-19.5,38c-3.1,8.5-6,17.2-10,25.6c-3.3,6.8-6.6,13.6-9.7,20.6
		c-8.7,19.4-18.9,37.9-28.8,56.7c-7.1,13.4-14.8,26.5-22.3,39.6c-8,14-17.1,27.3-24.9,41.3c-3.1,5.5-4.4,12.1-9.1,16.6
		c-6.2,5.9-8.8,14.2-11.7,21.5c-4.9,12.2-7.3,25.5-10.2,38.5c-1.1,4.9-3.6,9.6-2.7,14.9c1.1,6.4,0,12.8-1.9,18.8
		c-3,9.4-3.3,19.3-4.9,28.9c-2.8,16.1-5.1,32.5-7.5,48.7c-2.4,16-0.6,32.1-3.9,47.9c2.9,8.7-0.2,17.5,0.6,26.4
		c0.8,10.1,2.8,20.1,2.6,30.4c-0.1,6.6,1.4,13.2,2.2,19.8c1.6,14.3,5.2,28.4,7.3,42.7c2.7,19,8.7,37.6,12.8,56.4
		c2.4,11,8.1,20.6,12.3,30.8c4.4,10.7,9.4,21.8,17.1,30.6c9,10.2,13.5,22.9,20.4,34.2c6.2,10.3,11,21.4,15.9,32.3
		c3.8,8.4,8.4,16.4,12,24.8c3.2,7.5,6.2,15.2,9.5,22.7c3.2,7.2,6.7,14.5,11.2,20.9c9.2,12.9,19.5,25,31.7,35.2
		c2.4,2,4.5,4.6,6.1,7.3c2,3.4,4.4,6.2,7.7,8.2c4.7,2.9,7.9,7.2,11.2,11.6c6.2,8.4,12.6,16.7,19.4,24.5c9,10.4,16.2,21.9,24.6,32.5
		c6.3,7.9,10.8,17.2,18.9,23.6c3.3,2.6,5.5,6.2,7.7,9.6c5.4,8.3,12.8,15,20.1,21.3c7.3,6.3,15,12.4,22.8,18.3
		c11.1,8.4,21.9,17,33.2,25.3c5.2,3.8,11.2,5.9,16.5,9.4c13.6,8.8,28.8,14.4,43.6,20.8c10.8,4.6,22,7.8,33,11.6
		c8.9,3.1,17.8,6.6,26.8,9.5c11.7,3.8,23.8,6.9,35,11.9c15.7,6.9,32.3,11.1,48.1,17.5c6.9,2.8,13.9,6.3,21.2,8
		c7.9,1.9,14.8,5.1,21.8,9.1c5.4,3.2,11.6,5.4,17.9,6.3c12.8,1.9,25.8,0.1,38.7,1.9c8.9,1.3,17.6-2.2,26.3-2.8
		c15.6-1.1,30.8-3,45.7-7.6c1.2-0.4,2.4-0.5,4,1.4c-14.9,6.2-26.7,16.7-39,26.5c-8,6.4-16.8,9.4-27.2,9.1
		c-9.1-0.3-18.4,1.3-27.5,2.3c-4,0.5-7.3,2.3-8.3,6.7c-0.8,3.4,0.1,6.3,2.6,8.7c2.6,2.5,5.9,2.3,9,2.1c11.7-0.7,23.5-1,35.1-2.7
		c9.3-1.4,18.4-4,26.4-10c8.9-6.6,18.2-12.7,28.1-18c8.1-4.3,15.7-9.6,23-15.2c9.6-7.4,19.9-13.6,30.6-19.2
		c18.4-9.6,38.4-14.6,58-20.8c13.6-4.2,27-8.9,40.1-14.1c10.6-4.2,21.4-7.9,31.8-12.5c10.4-4.5,20.8-9.2,31.2-13.6
		c9.6-4.1,18.7-8.9,28-13.6c9.6-4.8,19.4-9.2,28.8-14.4c10-5.5,20.2-10.6,30.3-15.6c9.1-4.5,17.4-10.2,26.9-14.1
		c6-2.5,12.2-5.4,17.8-8.8c7.3-4.4,15.3-7.8,21.8-13.4c3.4-3,7.5-4.8,11.5-6.6c4-1.7,5.8-6.7,11.3-7.1c-3.6,6.7-7.2,12.8-12.1,18
		c-10.8,11.6-22.8,22.2-31.8,35.2c-7.2,10.3-17.4,15.8-27.8,21c-13.6,6.8-27.2,13.4-39.8,22.1c-5.8,4.1-10,10-15.9,13.6
		c-12,7.4-22.6,16.6-32.4,26.4c-11.5,11.5-24.9,19.6-39.5,25.6c-18,7.4-36.7,13.2-55.2,19.7c-2.7,1-5.5,1.1-8.2,2.3
		c-19.8,9-41,12.7-62.3,15.5c-11.3,1.5-22.5,4.4-33.9,3.8c-11.9-0.6-23.1,1.7-33.9,7.4c4.2,2.4,8.2,4.9,12.4,7.1
		c10.6,5.5,22,8.6,33.9,6.9c16.6-2.3,33.1-4.3,49.6-8.1c20-4.6,38.8-11.9,57.8-18.8c3.5-1.3,7.3-2.1,10.4-4.6
		c10.3-8,22.8-12.4,33.6-19.5c1.5-1,3.3-3.4,5.7-1.8c1.9,2.7-2.7,4.3-0.9,7.3c6.7-4.4,13.2-8.3,19.1-13.9c9-8.4,17.7-17.2,27.7-24.8
		c8.8-6.7,18.5-12.7,26.2-20.5c13.7-13.8,30-22.9,47.3-31c10.8-5,21.7-10.5,30.3-19.3c1.6-1.6,3.2-2.9,5.4-3.8
		c15.4-6.1,25.2-19,36-30.5C1935.5,2090.1,1933.8,2086.8,1926.7,2084.4z M2146.5,1864.9c9.7-11.2,19-23.4,21.8-37.4
		c3.7-18.2,12.9-34.3,16.9-52.2c2.4-10.5,7.5-19.9,12.2-29.7c9.4-19.8,12.1-41.9,18.9-62.7c4.2-12.7,2-26.5,5.6-39.4
		c0.4-1.5,0-3.2-0.1-4.7c-0.9-9.1-0.9-18.3-1.1-27.5c-0.2-11.1,1.6-22.3-0.9-33.2c-4.4-18.9-6.8-38.1-7.5-57.5
		c-0.2-5.4-0.8-10.8-2-16.1c-4.4-19.3-4.4-39.1-6.5-58.6c-2.2-20.5-2.9-41.1-8-61.2c-2.2-8.9-3.7-18-7.5-26.4
		c-2-4.3-5.1-7.9-7.3-12.1c-10.5-19.7-14.5-42-25-61.6c-1.9-16.6-14.9-27.5-21.8-41.6c-3.6-7.3-9.1-13.7-13.5-20.7
		c-2.2-3.6-4.8-7.2-10.1-9.4c1,8.1,4.1,14.5,8.6,19.4c10.5,11.4,13,27.5,23.8,38.6c0.6,0.6,0.8,1.7,1,2.6
		c2.5,12.2,9.1,22.9,13.4,34.5c2.5,6.9,2.8,14.4,6.6,20.8c6.4,10.7,9.4,22.8,15.3,33.7c1.2,2.2,2.3,4.6,2.8,7
		c2.8,12.4,5.2,24.9,8,37.3c2.7,11.9,2.2,24.1,3,36c0.8,13,4.2,25.8,3.1,38.9c-0.7,8,0.3,15.8,2,23.6c0.6,2.8,1.1,5.6,1.2,8.4
		c0.4,15.5-0.2,31.1,1.1,46.5c1.4,16.1,1.3,32,1.2,48.1c-0.1,21.3-4,42.3-4.3,63.5c0,1.2-0.3,2.5-0.8,3.7
		c-7.7,20.5-10.5,42.4-18.4,62.8c-6,15.5-9.3,31.7-13.1,47.7c-3,12.8-9.9,24.8-8.1,38.7c0.1,1.1-0.9,2.3-1.5,3.4
		C2149,1839.6,2146.9,1852,2146.5,1864.9z M863.7,1834c1.3-2.1-0.2-3.3-0.7-4.8c-2.4-7.6-7.8-13.8-10.2-21.4
		c-5.8-18.1-14-35.2-20.8-52.9c-6.6-17.2-8.7-34.8-6.6-53.3c1.6-14.5,1.5-29.3,0-43.9c-1.6-15.5-3.4-30.9-2.9-46.4
		c0.1-3.8-0.3-7.6-0.7-11.4c-2.1-21.3-5-42.6-6.1-64.1c-1-20.2-3.3-40.4-5.2-60.5c-0.7-7.4-2.3-8.9-10.4-10.6
		c-1.4,3.3-1,6.8-0.9,10.2c0.6,14,2.3,28,1.5,41.9c-1.4,27-2.7,54-2.6,81c0,5.7,0.3,11.5-0.1,17.2c-2.5,39.3,1,77.9,11.2,115.9
		c3.3,12.5,5.1,25.5,10.5,37.4C830.9,1792.4,844.1,1815.1,863.7,1834z M2248.1,1034.9c-0.7,0.1-1.4,0.3-2,0.4
		c-0.1,2.7,0,5.4,0.4,8.2c2.2,18.6,4.9,37.1,4.9,55.9c0,6.9,1.4,13.7,4.4,20.2c8.6,18.7,16.9,37.5,24.6,56.6
		c8.8,21.7,16.9,43.7,25.2,65.7c2.8,7.4,6.1,14.7,8.6,22.1c5.5,16.1,13.9,30.6,22.1,45.3c1.5,2.6,2.8,5.6,6.1,7.1
		c0.9-2.3,0.7-4.1,0.3-6c-2.8-12-5.7-24.1-8.4-36.2c-1.8-8.1-4.5-15.9-5.4-24.2c-2.5-22.8-10.2-44.5-15.8-66.6
		c-3.2-12.4-8.4-24.5-13.5-36.5c-10.2-23.9-18.7-48.5-30.3-71.8C2262.5,1061.7,2255.2,1048.4,2248.1,1034.9z M2087,1160.1
		c0.2-5.5-2.6-8.3-5.6-11.3c-10.8-10.6-23.7-18.1-36.5-25.6c-5.2-3.1-10.5-6.2-14.7-10.5c-6.9-7-14.7-12.9-21.8-19.5
		c-12.2-11.2-25.6-20.7-37.8-31.8c-4.7-4.3-9.3-8.3-12.4-14.1c-4.1-7.9-9.8-14.8-15.5-21.7c-4.2-5.1-8.5-10.4-11.3-16.4
		c-2.3-5-6.1-8.9-9.4-13.2c-2.4-3.1-5.8-4.9-9.9-5c-2.2,0-4.6-0.4-5.8,2.2c-1.4,3,0.3,5.1,2.7,6.2c5.6,2.6,8.5,7.6,11.1,12.6
		c3.7,7.1,8.4,13.5,13,19.9c5.9,8.2,12.3,16.1,17,25.2c2.2,4.3,5.8,7.6,9.6,10.6c14.3,11.6,28.9,22.8,42.2,35.6
		c1.6,1.5,3.2,3.3,5.2,4.1c16,6.6,28.5,18.9,43.7,26.8c3.7,1.9,6.9,4.6,10.5,6.6C2070.6,1145.8,2076.5,1155.1,2087,1160.1z
		 M2091.2,1985.8c-7.1,4.7-15.1,7.5-22,12.4c-9.8,6.9-19.8,13.6-30.6,18.8c-16.5,8-31.2,19.1-47.6,27.5c-5.3,2.7-9.6,7.3-15.7,8.7
		c-1.7,0.4-3.4,2.2-3,4.4c0.5,2.6,2.8,3.1,5.2,3c1.9-0.1,4,0,5.6-0.8c4.2-2.1,8.9-3.3,12.9-5.9c13.6-8.6,27.1-17.4,41.8-24.3
		c5.1-2.4,10.6-3.9,15.5-6.8C2069,2013.6,2082.3,2002.2,2091.2,1985.8z M812.6,1362.4c-8.5,7.1-10.1,9.9-10.4,19.3
		c-0.4,13-0.6,26-0.7,39c0,7.4,2.6,12,6.5,12.3c4.2,0.4,7-4.6,7.2-12.5c0.2-10.1-0.1-20.2,1-30.4
		C817.2,1381.1,816,1371.9,812.6,1362.4z M1122.2,964.5c13.5,1.6,23.5-5,33.6-10.8c5.4-3.1,11.1-6.1,15.1-11.4
		c1.4-1.8,2.7-3.7,1.3-6c-1.4-2.3-3.7-2.2-5.9-2.4c-2.1-0.2-3.6,1.2-5.2,2.1c-9.4,5.2-18.9,10.3-28.1,15.8
		C1128.2,954.6,1124,958,1122.2,964.5z M877.3,1251.8c-0.9,0.3-1.4,0.3-1.5,0.5c-0.6,1.1-1.1,2.2-1.5,3.3c-5,12.6-11,24.6-20.3,34.8
		c-3.6,3.9-5.9,8.9-8.7,13.6c-0.9,1.6-1.9,3.7,0.6,4.9c1.9,1,3.9,0.4,4.9-1.5c4.1-7.6,10.9-13.1,16.1-19.9
		C874.9,1276.7,878.8,1265.3,877.3,1251.8z M2260.6,2204.3c-2.3,0.9-4.1,1.1-4.5,1.9c-4.4,8.3-11.7,13.7-18.9,19.1
		c-0.5,0.4-0.9,0.9-1.2,1.4c-1.6,2.3-0.6,4.4,2.2,4.5c1.5,0,3.5,0,4.5-0.8C2250.4,2223.5,2258.1,2216.6,2260.6,2204.3z
		 M742.7,2205.6c-2.5,0.2-2.6,1.8-2.1,3.3c3.1,9,9.9,15.2,16.7,21.2c1.8,1.6,5.3,2.2,7,0.2c2.2-2.7-0.8-4.2-2.6-5.9
		c-5.9-5.5-13.5-9.3-16.8-17.4C744.6,2206.4,743.4,2206.1,742.7,2205.6z M2259.7,803.5c1.6-3.9-1.5-6.1-2.5-8.9
		c-2.4-7.4-9-11.2-13.9-16.4c-2-2.2-5.8-2.4-7.7-0.1c-1.4,1.6,0.6,3.6,2.5,5.2c6.5,5.3,13.9,9.8,17.5,18
		C2256,802.4,2258.2,802.8,2259.7,803.5z M2208.4,2252.2c0.2-1.7-0.5-2.5-1.9-2.5c-1.8-0.1-3.9-0.2-4.1,2.4
		c-0.1,1.2,0.5,2.6,1.9,2.8C2206.3,2255.1,2207.5,2253.7,2208.4,2252.2z M2208.5,756.9c0-2.3-1.6-3.2-3.5-3.6
		c-1.4-0.4-2.2,0.8-2.6,2c-0.7,2,0.6,2.8,2.2,3.1C2206.1,758.7,2207.7,758.8,2208.5,756.9z M794,2249.7c-1.2-0.2-1.8,0.5-1.9,1.4
		c-0.2,2.2,1.1,3.4,3.2,3.7c1,0.2,1.9-0.6,2-1.5C797.4,2251.1,796.1,2250,794,2249.7z M716.6,2186.8c-0.1-1.6-1.2-2-2.5-2
		c-0.9,0-1.9,0.4-1.7,1.5c0.2,1.2,1.1,2.2,2.5,2.3C715.9,2188.6,716.4,2187.8,716.6,2186.8z M2287.9,2186.1c-0.3-1-1.1-1.4-2-1.4
		c-1.4,0-2.4,0.6-2.2,2.2c0.1,0.9,0.6,1.8,1.8,1.6C2286.9,2188.3,2287.6,2187.4,2287.9,2186.1z M2288,822.4c-0.4-1.5-1-2.6-2.4-2.8
		c-1-0.2-1.8,0.5-1.9,1.4c-0.2,1.5,0.6,2.4,2,2.4C2286.5,823.3,2287.3,822.7,2288,822.4z"/>
	<path d="M939.6,2746.3c-7-6.3-14.3-10.7-21.8-14.5c-14.3-7.3-28.7-14.5-43.7-20.3c-6.1-2.4-11.5-6.5-17.8-8.8
		c-7.1-2.6-14.1-5.3-21-8.2c-23.5-9.8-47.2-19-70.3-29.8c-19.1-8.9-37.4-19.7-56-29.5c-16.7-8.8-32.7-18.9-49.1-28.1
		c-20.7-11.6-40.9-23.9-60.8-36.8c-17.4-11.3-34.6-23-51-35.8c-14.9-11.7-29.6-23.6-43.7-36.1c-22.2-19.6-43.7-39.9-64.6-60.9
		c-17.4-17.5-34.3-35.4-50.8-53.6c-10.1-11.1-19.2-23.2-28.7-34.9c-7.5-9.3-14.9-18.7-22.3-28c-14.5-18.3-27.8-37.4-39.6-57.6
		c-7-11.9-13.4-24.1-19.2-36.6c-6.5-14-11.9-28.5-17.6-42.9c-6.9-17.6-13.9-35.2-18.5-53.6c-4.4-17.4-9-34.8-12.1-52.6
		c-2.6-15.3-4.3-30.8-8.9-45.7c-3.3-10.6-3-22-5.1-32.9c-4.2-21.7-7.7-43.6-10.9-65.5c-2-13.8-4.4-27.6-7.9-40.9
		c-4.1-16.1-6.2-32.6-11.2-48.6c-4.8-15.3-9.8-30.6-15.2-45.6c-9.2-25.5-24.1-47.9-42.3-68c-8-8.8-14.7-18.7-23.3-27
		c-3.4-3.3-3.1-7.6-0.3-10.3c3.5-3.3,6.9-0.9,9.5,1c6.7,4.9,11.5,11.7,16.9,18c12.9,15,25.8,30.1,36.9,46.5
		c14.5,21.2,28.2,42.8,38.6,66.3c8.8,19.9,15.7,40.6,23.6,60.8c9.7,24.7,17.2,50.2,27.2,74.8c2.3,5.7,4.2,11.6,6.7,17.2
		c0.9,2.1,1.8,4.1,0.5,6.5c-3.2,0.3-4.2-2.4-5.5-4.3c-7-9.8-14.8-18.9-20.7-29.4c-3.1-5.5-7.2-5.9-10.4-2c-2.2,2.7-1.5,6,0,8
		c11.3,14.6,16.2,32.2,21.7,49.1c7.6,23.6,16,47.1,19.4,72c2.2,15.9,6.4,31.6,9.7,47.4c1.2,6,4.9,11,7.3,16.4
		c7.7,16.9,15.7,33.8,26.6,49.1c2.2,3.1,4.6,6,7.3,8.7c7.7,7.7,14,16.4,16.9,27c5.9,21.5,19.2,38.9,31.4,56.8
		c14,20.5,30.8,38.9,47.6,57.3c0.9,0.9,1.8,1.8,2.6,2.8c8.6,9.5,7.8,12.7-4.5,17c2.7,6.5,9.2,9.5,13.6,14.2c12,13.1,26,24.2,40,34.9
		c11.1,8.5,23,16.3,35.3,23.5c14.6,8.6,29.5,16.7,44.3,24.9c16,8.8,32.6,16.7,47.7,27.3c12.8,9,25.5,18.1,37.1,28.8
		c11.9,10.9,23,22.5,33.5,34.7c8.7,10.1,20.1,16.1,31.8,21.8c20.4,9.9,41.5,18.3,62.8,25.7c14.9,5.2,30,10.1,44.5,16.2
		c19.2,8.1,38.4,16.5,56.4,27.3c31.3,18.8,58.4,42.7,83.6,69c16.2,16.9,30.7,35.1,44.5,53.9c9.3,12.6,16.3,26.8,24.2,40.4
		c6.6,11.5,13.4,23,19.8,34.6c0.6,1.1,1.5,2.1,2,3.2c1.7,3.3,1.3,6-2,8.2c-3.1,2-5.5,1.1-7.5-1.3c-3.8-4.6-7.4-9.3-11.1-14
		c-17.9-22.2-39.8-40.1-62.2-57.5c-5.2-4.1-10.4-8.2-14.8-13.1c-1.9-2.1-3.9-4.2-7.1-4.5c-1.5-0.2-3-0.9-4.5-1.6
		c-3.4-1.5-3.3-4.7-2.9-7.4c0.4-2.6,3.3-2.7,5.5-2.4C932.7,2746.9,935.7,2747.6,939.6,2746.3z M458.8,2413.6
		c-1.1,1.3-0.2,2.4,0.3,3.5c3.6,8.4,9.1,15.8,13.8,23.6c13.3,22.6,32.7,39.1,54.2,53.2c12.9,8.5,27,15,40.5,22.7
		c15.4,8.8,30.8,17.7,45.4,27.5c1.4-1.4,0.3-2.1,0.1-2.8c-0.4-1.6-1.7-2.5-3-3.5c-15.3-12.6-32.6-22.4-49.2-33.1
		c-8.8-5.6-17.8-10.9-27-15.8c-11.2-6-20.5-14.9-29.3-23.9c-7.2-7.3-14-15.1-19.9-23.9C477.7,2430.6,471.7,2418.7,458.8,2413.6z
		 M287.5,2180.3c3.1,12.2,4.6,24.8,8.6,36.6c4.9,14.6,11.8,28.5,19,42.2c10.1,19.1,22.4,36.2,37.1,52c7.4,8,16.4,14.6,21.5,24.7
		c1.2,2.4,4,4.3,7,5c0.8-1.4,0.9-2,0.1-3c-8.2-11.1-16.2-22.5-25.5-32.7c-14.4-15.7-24.7-33.9-34.8-52.5
		c-8.8-16.2-14.9-33.5-22-50.3C295.3,2194.9,293,2187,287.5,2180.3z M231,1936.2c-1.7-4.7-0.3-9.5-0.8-14.1
		c-1.9-16.3-5.7-32.2-11.5-47.5c-2.9-7.6-5.8-15.4-10.6-22.1c-0.9-1.3-2.3-2.5-4-1.6c-1.9,0.9-2.7,2.6-1.8,4.7
		c1.2,2.6,2.9,4.9,3.9,7.5c6.2,15.9,10.5,32.3,14.5,48.9C222.8,1920.5,226,1928.7,231,1936.2z"/>
	<path d="M2060.7,2746.1c3.9,1.7,6.7,0.9,9.5,0.5c2.1-0.3,5.2-0.1,5.6,1.9c0.5,2.5,0.9,6.7-2.4,7.5c-12.5,3.2-18.9,14.4-28.6,21.2
		c-9.6,6.7-18.3,14.5-27.2,22.2c-15.5,13.4-29.7,27.9-41.7,44.6c-0.7,1-1.3,2.1-2.2,3c-2.5,2.6-5.2,3.5-8.4,1.1
		c-3.2-2.4-3.3-4.8-1.4-8.2c5.8-9.8,11.2-19.9,16.9-29.8c7.3-12.5,14.6-25.1,22.2-37.4c10.4-17,23.3-32.1,36.2-47.4
		c12.6-15,26.2-29,40.5-42.3c11.5-10.8,24.1-20.3,36.7-29.8c20.5-15.3,43.4-25.8,66.5-36.1c13-5.8,26.3-10.8,39.5-16
		c8-3.2,16.2-5.5,24.2-8.5c23-8.5,45.5-18.1,67.6-29c8.2-4.1,14.3-10.3,20.1-16.9c12.9-14.8,26.9-28.6,41.6-41.4
		c11.1-9.7,23.5-18.1,36.1-25.9c20.6-12.9,42.7-23,63.8-34.9c22.7-12.8,44.7-26.8,65-43.3c14.5-11.8,27.4-25.2,41.5-37.3
		c1.2-1.1,2.1-2.4,2.2-4.1c-0.7-1.3-2-1.1-3.2-1.4c-7.7-2.4-9.2-6.7-3.9-12.3c16.5-17.2,31.9-35.5,46.7-54.2
		c8.2-10.4,14.9-21.9,22.3-33c9-13.5,14.5-28.6,19.8-43.8c1.8-5.1,6.2-8.8,9.8-12.7c10.5-11.1,18.3-24,25-37.7
		c4.9-9.9,9.7-19.8,14.4-29.7c6-12.8,8.7-26.4,11.2-40c3.9-21.5,7.9-42.8,14.3-63.8c5.7-18.8,12.5-37,19.1-55.4
		c2.3-6.3,6.1-11.8,9.2-17.6c0.4-0.8,1.9-1.2,2-2c0.5-3.3,2.1-7-2-9.3c-4-2.2-7-0.4-8.6,3c-5.2,10.6-13.1,19.2-19.8,28.7
		c-1.9,2.6-3.7,5.1-6.6,6.7c-1.3-2.2-1-4.2,0-6.3c9.7-20.8,16.3-42.9,24.1-64.4c7-19,14.5-37.8,21.4-56.8c6-16.6,12-33.2,20.5-48.8
		c15.6-28.7,33.3-55.9,54.3-80.9c8.7-10.3,17.7-20.4,26.7-30.5c1.6-1.8,3.4-3.6,5.9-4.7c2.5-1,4.6-2.1,7-0.1c2.5,2.2,2.4,5,1.7,7.9
		c-0.5,2.1-2.3,3-3.5,4.4c-15.9,19.1-32.9,37.4-46.6,58.4c-7.8,12-13,25.3-18.3,38.4c-3.9,9.6-7,19.6-10.3,29.5
		c-4,12.3-7.6,24.7-9.8,37.5c-2.7,15.5-6.7,30.8-9.8,46.3c-2.5,12.7-4.2,25.5-6.5,38.2c-4.5,24.6-7,49.6-12.1,74.1
		c-5,24.2-7.8,48.8-13.7,72.7c-5.9,24.1-12.3,48.2-21.8,71.4c-9.6,23.3-17.5,47.3-29.3,69.7c-9.5,18-20.1,35.2-31.6,52.1
		c-11.5,17.1-24.6,32.9-37.1,49.2c-9.2,11.9-19,23.5-28.8,34.9c-15.2,17.8-31.2,34.8-47.5,51.5c-24.4,25-49.6,49.2-75.9,72.2
		c-23,20.1-46.8,39.3-72.4,56.2c-22.2,14.6-44.5,28.9-67.5,42.2c-22.9,13.2-45.8,26.4-68.8,39.4c-30.6,17.3-62.4,31.7-94.6,45.6
		c-17.8,7.7-36.3,13.9-53.9,22c-17.2,7.9-34.7,15.1-51.3,24.1C2076.5,2735,2068.7,2739.6,2060.7,2746.1z M2386.1,2545.5
		c5.1-4.4,9.7-6.5,13.8-9.3c18.4-12.2,37.5-23.2,57.1-33.1c19.7-10.1,36.5-23.5,52.2-38.7c10.3-9.9,17.5-22.1,24.6-34.3
		c3.1-5.3,7.6-10,7.8-16.9c-9.9,4.8-15.9,12.9-21.7,21.5c-7.6,11.6-16.6,22.1-26.2,32.1c-15.9,16.5-36.1,26.4-55.3,37.9
		c-4.1,2.5-7.4,5.7-11.6,8c-13,7.1-25.1,15.5-36.6,24.9C2388.3,2539.4,2386.6,2540.8,2386.1,2545.5z M2618.7,2341.4
		c3.4-1.6,6.4-2.9,7.8-5.5c3.3-6.2,8.6-10.6,13.2-15.6c16.3-17.6,32.7-35.1,43.2-57.1c5.1-10.5,10.7-20.7,15.4-31.3
		c5.9-13.3,8.6-27.6,12.2-41.6c0.8-3.3,1.7-6.5,2.6-9.8c-3.4,3.2-5.3,6.8-6.8,10.8c-6.3,15.9-12.6,31.7-19.6,47.3
		c-4.6,10.3-10,20.4-15.7,30.2c-4.7,8.1-9.6,16.2-15.6,23.6c-11.1,13.6-22.8,26.8-32.8,41.3
		C2621.1,2335.8,2618.5,2337.4,2618.7,2341.4z M2769.4,1934.9c1.7-1.2,2.5-1.5,2.6-2c2.8-10,7.4-19.2,9.6-29.6
		c2.2-10.6,4.3-21.7,9.5-31.6c2.7-5,3-10.9,6.5-15.6c1.2-1.6,0.8-3.8-1-5.1c-2.1-1.5-3.6,0.2-4.7,1.7c-1.4,2.1-2.9,4-3.9,6.4
		c-3.1,7.9-6.4,15.7-9.2,23.8C2773.2,1899.7,2770.3,1916.5,2769.4,1934.9z"/>
	<path d="M938.9,263.6c-3.3-3.6-6.4-0.4-9.3-0.9c-2.5-0.4-5.2-0.7-5.4-4c-0.2-2.6,0.4-5.9,3.3-6.2c7.5-0.6,11.4-6.3,16.1-10.7
		c12.3-11.5,26.5-20.6,38.9-32c15.1-13.8,29.6-28.1,41.8-44.7c0.6-0.8,0.8-1.8,1.5-2.5c2.6-2.9,5.5-4.3,9.2-1.7
		c3.4,2.4,2.8,5.2,1.1,8.3c-4.1,7.2-7.9,14.5-12,21.6c-9.5,16.3-19.3,32.5-28.8,48.8c-4.3,7.5-10,13.9-15.1,20.7
		c-17.9,24.2-38.4,46-60.4,66.4c-30.2,28-65,48.6-103,64.3c-13.1,5.4-26.2,10.7-39.4,16c-7.9,3.2-16.2,5.3-24.2,8.3
		c-23.3,8.7-46.2,18.2-68.3,29.6c-7.5,3.9-13.3,9.7-18.6,15.9c-12.9,15.2-27.2,29-42.1,42c-10.8,9.5-23.1,17.4-35.3,25.2
		c-20.4,13.1-42.7,23.1-63.8,35.1c-16.6,9.4-32.9,19.4-48.5,30.5c-21,14.9-39.2,32.8-58.3,49.9c-1.2,1-2.3,2.2-2.4,4
		c0.5,2.1,2.4,1.4,3.8,1.9c6.7,2.4,8,6.8,3.1,12.2c-9.8,11-19.8,21.9-29.4,33.2c-14.9,17.6-28.1,36.2-40.4,55.7
		c-7.1,11.4-12.3,23.5-16.6,35.9c-2.6,7.6-7,13.5-12.2,18.9c-10.4,10.9-17.6,23.7-24.8,36.8c-6.4,11.7-12,23.8-17,36
		c-4.3,10.4-6.4,21.8-8.5,33c-4.1,22.7-8.1,45.2-15.3,67.3c-5.5,16.8-10.7,33.6-17.2,50.1c-3,7.7-6.4,15.1-11.1,21.9
		c-3.1,4.6-2.8,8.5,1.1,10.4c4.4,2.2,6.8-0.3,8.8-4.1c5.5-10.4,13.3-19.1,20.1-28.6c1.4-1.9,2.4-4.6,5.5-4.7c1.3,1.8,1,3.7,0.2,5.5
		c-6.6,14.3-11.5,29.2-16.7,43.9c-3.4,9.8-6.7,19.7-10.3,29.4c-5.6,15.1-11.8,30-17,45.2c-3.1,9-7.1,17.5-10,26.6
		c-3.1,9.8-8.5,19.1-13.6,28.2c-12.1,21.8-25.4,43-40.7,62.8c-8.8,11.4-18.5,22.2-27.8,33.2c-3.9,4.6-7.5,9.4-12.2,13.3
		c-5.4,4.4-9,5.6-11.6,3.2c-3.4-3.1-2.6-6.7,2.1-12.2c14.3-16.8,29-33.3,41.7-51.2c7.1-10,12.7-20.8,17.5-32.3
		c6.2-14.9,12-29.9,16.7-45.1c3.6-11.7,7.8-23.4,9.2-35.7c0.8-6.8,2.1-13.5,4.8-20c1.5-3.7,0.7-8.2,1.7-12.2
		c4-15.3,5.5-31.2,8.7-46.6c4.3-20.8,7.2-41.8,10.5-62.7c4.4-28.2,10.4-56.1,15.3-84.2c3.7-21.3,9.7-42.5,17.6-62.9
		c6.6-17.1,13.4-34.1,19.9-51.3c6.2-16.5,14.2-32.2,22.5-47.6c6.6-12.4,15.1-23.9,23-35.6c11.3-16.5,23.7-32,36.1-47.6
		c8.2-10.3,16.2-20.7,24.7-30.8c17-20.3,35.1-39.6,53.6-58.5c24.3-24.8,49.3-48.8,75.5-71.6c23-20,46.8-39.3,72.4-56.1
		c22.2-14.6,44.5-29,67.5-42.3c23.1-13.4,45.9-27.3,69.6-39.7c27.4-14.4,55.1-27.8,83.8-39.7c13.9-5.8,28-11.1,41.6-17.7
		c7-3.4,15-4.8,22-8.5c21.8-11.4,45.4-19.3,65.9-33.2C932.8,267.9,935.7,265.8,938.9,263.6z M457.9,595.2
		c11.3-5.7,17.3-14.4,23.2-23.3c7.3-11,16-20.9,25.1-30.5c15.8-16.6,36.1-26.4,55.1-38.1c4.3-2.6,7.9-6.1,12.4-8.4
		c13.1-6.9,24.9-15.8,36.5-24.9c1.6-1.3,3-2.4,0.1-5.2c-2.3,3.7-6.5,4.5-9.8,6.7c-18.9,12.5-38.6,23.8-58.7,34
		c-19.2,9.8-35.3,23.1-50.6,37.8c-10.3,9.9-17.7,22.1-24.8,34.3C463.5,582.9,459.4,587.8,457.9,595.2z M288.2,829.3
		c1.4-4.7,3.8-7.8,5.3-11.7c6.5-16.4,13.4-32.7,20.4-49c3.7-8.7,8.9-16.7,13.2-25.1c4.9-9.5,10.4-18.7,17.1-27.1
		c11.2-14,23.2-27.4,33.5-42.1c1.4-1.9,4.2-3.6,3.6-7.1c-3.6,0.2-6.2,2.7-7.1,4.5c-3.7,7.7-10.4,12.5-15.8,18.5
		c-15.6,16.9-30.8,34.1-41.2,54.9c-4.9,9.8-10.2,19.5-14.6,29.6c-6.3,14.2-9.7,29.3-13.1,44.3C288.6,821.9,286.3,824.8,288.2,829.3z
		 M230.9,1069.6c-4.5,10.4-8.3,18.8-10.7,27.7c-3.5,13.1-5.5,26.5-11.2,39c-2.3,5.1-3.3,10.8-6.5,15.6c-1.3,1.9-0.8,3.8,0.9,5
		c2,1.4,3.6,0.1,4.8-1.6c1.1-1.5,2.4-3,3.1-4.8c5.9-13.2,11.5-26.5,14.5-40.7C228.6,1097.4,231,1084.8,230.9,1069.6z"/>
	<path d="M2734.1,1021.8c8,9.9,15.4,18.8,21.8,28.5c1.7,2.6,2.9,5.7,4.7,8.2c2.1,3,4.8,5.1,8.8,2.7c4-2.5,2.7-6.2,1.6-9.3
		c-0.6-1.9-2.6-3.4-3.9-5.2c-5.1-7.8-7.4-16.7-11.1-25.1c-6.9-15.6-10.7-32.3-16-48.4c-6.7-20.3-9.7-41.2-13.5-62
		c-3.1-17-7.8-33.7-16-49.3c-7.6-14.5-14.1-29.5-23.5-43c-2.5-3.6-5.2-7.3-8.5-10.2c-8.5-7.7-13.9-17.3-17-27.9
		c-4.7-16.1-14-29.5-22.7-43.4c-11.4-18.3-25.6-34.5-39.2-51.1c-6.5-8-13.9-15.2-20.8-22.9c-7-7.7-5.8-11.1,4.7-13.7
		c0.5-0.1,0.9-0.7,1.6-1.4c-3.5-6.1-9.7-9.7-14.4-14.7c-11.9-12.6-25.5-23.6-39.2-34.2c-10.9-8.3-22.5-15.9-34.3-23.1
		c-18.3-11.1-37.2-21-56-31.2c-12.5-6.8-25.1-13.5-36.8-21.5c-13.2-9-25.9-18.7-37.9-29.5c-11.6-10.4-22-21.9-32.4-33.4
		c-9.1-10.1-20.3-16.7-32.3-22.5c-20.4-9.8-41.5-18.2-62.8-25.7c-14.9-5.2-30-10.2-44.5-16.2c-18.4-7.7-36.7-15.9-54-25.9
		c-17-9.7-33.3-20.6-48.1-33.4c-12.4-10.8-24.3-22.1-35.8-33.8c-17.1-17.3-31.7-36.6-46.4-55.8c-6.1-7.9-10.8-17.1-15.8-25.8
		c-9.8-17-19.3-34.1-29.2-51c-2.2-3.7-4-6.7,0.7-9.5c3.7-2.2,6.6-1.7,9.6,2.8c15.1,22.5,35.4,40,55.7,57.4
		c10.8,9.3,22.9,16.9,32.7,27.5c2.1,2.3,4.9,2.7,7.7,3.2c3.9,0.8,5.1,4.2,4.6,7.3c-0.5,3-3.5,3.7-6.6,3.5c-2.3-0.1-4.8-2.4-7.5,0.6
		c5.1,5.6,11.7,9.1,18.1,12.5c13.7,7.2,27.7,13.9,41.8,20c5,2.1,9.4,5.3,14.4,7.2c12.1,4.6,24.4,8.5,36.1,14
		c18.2,8.6,37.3,15.3,55.5,24c27,12.9,53.9,26.1,80,41c20.2,11.6,40.4,23.2,60.5,35c25,14.7,49.4,30.6,72.7,47.9
		c26,19.3,50.6,40.3,74.3,62.5c18.4,17.3,36.8,34.6,54.5,52.5c24.9,25.2,48.5,51.4,70.2,79.4c8.5,10.9,17.7,21.3,26.1,32.3
		c22.5,29.6,42.8,60.7,57.5,95c6.2,14.4,12.4,28.9,17.3,43.9c3,9.3,7.2,18.1,10.2,27.5c3.5,11.1,6.2,22.4,9.6,33.5
		c5.4,17.3,8,35.1,11,52.9c2.2,13.5,6.5,26.6,7.9,40.1c2.1,19.9,6.2,39.5,9.2,59.2c2.4,16.2,5.6,32.3,8.5,48.5
		c3,17.1,7.8,33.8,10.4,51c1.6,10.5,4.7,21,8.2,31.1c5.7,16.7,11.7,33.4,18.6,49.6c6,14.3,14.2,27.6,24.4,39.3
		c11.8,13.5,22.1,28.4,34.9,41.2c3.2,3.2,3.2,7.6,0.8,10.3c-3.3,3.7-6.8,1.3-9.3-0.6c-4-3-7.6-6.8-10.8-10.7
		c-9.4-11-18.5-22.3-27.7-33.4c-12.6-15-23.4-31.3-33.4-48.1c-8.3-13.9-16.5-27.8-22.9-42.7c-3-6.9-5.6-14.1-8.3-21.1
		c-5.5-14.1-10.6-28.5-15.8-42.7c-6.9-19-13.1-38.2-20.4-57.1c-3.6-9.3-5.9-19.2-11-27.9C2733.5,1028.3,2732.9,1026,2734.1,1021.8z
		 M2541.9,595.2c-0.2-1.7-0.2-2.6-0.5-3.5c-3.7-9.1-9.7-16.9-14.6-25.4c-11.9-20.8-30.2-35.5-48.8-49.5c-11.2-8.4-24.9-13.3-37-20.7
		c-13.4-8.2-27.5-15.2-40.6-24c-4.4-3-9.3-5.4-15.1-8.8c1.7,3.4,2.6,5.1,4.5,6.6c10.2,7.9,20.4,15.6,31.7,22.1
		c12,6.9,23,15.6,35.2,22.1c9.2,5,18,10.5,26,17.1c11.5,9.5,22,20.1,30.6,32.1C2521.5,574.9,2527.9,587.9,2541.9,595.2z
		 M2711.1,827.9c0.6-0.1,1.2-0.2,1.8-0.3c-2.9-12.2-5.1-24.6-9-36.4c-4.5-13.8-10.8-26.9-17.5-39.8c-10.4-20-23.1-38.3-38.7-54.7
		c-7.5-7.9-16-15.1-21.6-24.8c-1.3-2.2-4.1-4.2-9.4-4.9c7.6,10,13.6,18.7,20.5,26.6c15.9,18.1,29.9,37.5,41.2,58.8
		c8.5,15.9,15.2,32.7,21.7,49.5C2703.6,810.6,2707.5,819.2,2711.1,827.9z M2769.8,1074.4c0,3.9-0.5,7.7,0.1,11.4
		c3.2,21.9,8.3,43.3,18.3,63.3c1.3,2.6,3,4.8,4.6,7.1c0.7,1,1.9,1.7,3.3,1.1c1.7-0.8,2.5-2.4,1.9-3.9c-1-2.6-2.7-5-3.7-7.6
		c-6.4-16.8-11.4-34-15.3-51.6c-1.5-6.7-4.7-13-7.2-19.4C2771.4,1074,2770.6,1073.6,2769.8,1074.4z"/>
	<path d="M655.7,708.5c2.8-12.1,8.3-23.2,10.3-35.4c0.2-1.5,1.2-2.9,2-4.2c0.6-1.1,1.7-2,2.2-3.1c8.9-17.2,23.1-30.9,31.7-48.3
		c3.7-7.6,6.9-15.4,12.9-24.6c-6.5,2.4-11.1,3.4-15,5.6c-17.8,10.2-37,18.2-53.4,30.8c-5.7,4.4-11.7,8.5-17.1,13.4
		c-15.4,14.1-29.9,29-43.1,45.3c-10.8,13.3-20.6,27.2-29.2,41.8c-6.4,10.9-12.9,21.9-17,33.9c-1.6,4.6-4.3,8.4-6.7,12.5
		c-3.1,5.2-4.8,11-7.5,16.3C518,808,516,825,510.1,840.9c-3.9,10.4-9.4,19.8-14.1,29.7c-6.4,13.3-16.2,23.8-23.4,36.3
		c-5.5,9.6-8.2,19.9-11.1,30.2c-7.3,25.7-15.3,51-32.1,72.4c-1.5,1.9-4.1,3.9-1.1,6.3c2.8,2.3,5.6,0.9,7.5-1.5
		c2.8-3.5,4.9-7.4,7.8-10.8c11.8-13.9,18-30.5,22.5-47.7c1.6-6.3,2.1-13,4.2-19.2c5.3-16.2,15.9-29,27.1-41.3c0.3-0.4,1.1-0.3,3-0.6
		c-1.8,9.6-3.4,18.8-5.4,27.9c-5.4,24.4-13.2,48.1-21.5,71.6c-2.7,7.5-6.1,14.6-10,21.5c-9.3,16.3-16.5,33.4-24.2,50.4
		c-8.2,18.1-11,37.5-13.8,56.9c-1.7,12.2-2.8,24.4-2.3,36.8c0.2,4.4,2.3,8.6,1.1,13.6c-2.6-1.8-3.8-4.5-4.3-7
		c-2.3-12.4-7.2-24.3-7-37.1c0-3.1-0.5-5.8-4.4-6.1c-3.9-0.3-4.4,2.1-4.9,5.4c-1.1,8.3-1.7,16.2,1.2,24.4c1.5,4.2,2.4,9.2-0.2,13.9
		c-1.6,2.9-1,6.2-0.6,9.4c3.3,22.8,10,44.2,22.5,63.9c14.5,22.7,15.9,32.5,13.6,59.8c-3.2,0.7-4.3-2-5.7-3.7
		c-14.5-18.4-29-36.7-43.1-55.3c-6.3-8.3-12.3-16.8-13.6-27.7c-0.2-1.6-0.7-3.1-1.1-4.6c-1.8-6.9-5.5-11.9-7.9-10.3
		c-4,2.6-6.1,7-7,11.8c-0.3,1.5-0.2,3.2,0,4.8c2.6,19.3,1.8,38.7,2.7,58.1c0.9,19.9,4.1,39.5,12,58.1c1,2.3,0.1,5,2,7.2
		c-4.3,2.3-6-0.2-8.1-2.9c-4.7-6.1-6.7-13.6-9.8-20.4c-5-11.2-10-22.5-12-34.9c-2.7-17-2.5-34.2-2.3-51.3
		c0.1-13.5,4.1-26.2,6.6-39.2c1.7-9,3.9-17.9,6.4-26.6c5.4-18.8,13.1-36.7,22.8-53.8c7.8-13.7,15.9-27.3,21.7-42
		c5.7-14.3,11-28.4,12.2-44.3c2.1-26.8,5.9-53.6,17.3-78.4c5.1-11.1,10.2-22.2,18.8-31.4c5.9-6.3,8.9-14.6,12.6-22.3
		c9.6-19.9,16.9-40.7,22.2-62.3c3-12.3,7.8-24.2,10.7-36.5c2.5-10.5,6.6-20.4,9.7-30.8c3.5-11.9,10.3-22.3,17.9-32.1
		c26.9-34.8,58.1-65.3,93-91.9c21.9-16.7,44.1-33.1,68.7-45.6c17.9-9.1,35.6-18.6,55-24.4c20.2-6.1,40.4-12.4,60.3-19.4
		c14.1-4.9,28.6-7.9,42.7-12.5c10.8-3.6,21.9-6,32.7-9.6c9.1-3.1,18.8-4.4,28.5-5.9c-9.3,7.3-19.8,13-30.9,15.8
		c-13.5,3.4-25.3,9.8-37,16.7c-27,15.7-53.4,32.5-78,52c1.9,2.1,3.4,0.2,4.8-0.5c15.4-7.2,30.3-15.4,44.7-24.4
		c15-9.4,31-16.9,47.5-23.3c12.1-4.6,24.3-9.3,36.9-12.4c14.8-3.5,29.8-5.8,44.7-8.8c13.9-2.8,27.6-6.2,41-11.2
		c1.8-0.7,4.2-1.1,5-2.5c3.8-6,10-6.1,15.8-7.2c4.4-0.8,8.5-2.3,12.5-4.2c17.1-8.1,33.3-17.5,49.1-28.1c22.3-15.1,46.5-26.8,73-33.4
		c14.1-3.5,28.3-6.8,42.4-10.2c6.2-1.5,12.6-1.5,18.9-2.1c25-2.6,50-3.3,75,0.6c7.4,1.1,15,2.4,22.7,2.4c1.3,0,2.6-0.1,3.8,0.3
		c3.4,1.2,6.9,3,6.5,7.1c-0.4,3.8-3.5,5.9-7.5,5.9c-4.5,0-8.9,0.1-13.4,0c-12.4-0.1-24.7,1.3-36.9,3.3c-6.6,1.1-13.3,1-19.9,1.6
		c-6.6,0.6-13.5,0.7-19.8,2.6c-12.8,3.8-26,4.8-38.9,8.4c-14.7,4.1-28.9,9-43,14.5c-5.9,2.3-11.5,5.2-17.3,7.8
		c-17.2,7.9-35,14.3-51.6,23.7c-9.9,5.7-21.3,9.9-33,10.4c-7,0.3-12.7,3.5-19,5.4c-28.8,8.6-57.9,16.2-86.4,25.6
		c-16.5,5.4-33.7,9-49.7,15.7c-20.4,8.5-41.7,14.4-61.6,24.3c-16.2,8-32.1,16.3-47.6,25.5c-19.1,11.3-36.3,25.2-53.4,39.3
		C687.5,675,670.8,690.8,655.7,708.5z M723.6,610.3c19.3-9.8,36.3-22.7,50.9-38.6C751,576.1,735.4,590.7,723.6,610.3z M387.2,1179.3
		c-2.6,12.6-0.2,24.1,3.3,35.6c0.9,3,1.2,6.9,5.5,6.2c4.4-0.7,3.3-4.6,3.3-7.7c0-0.6-0.4-1.2-0.5-1.8c-1.9-8.5-5.7-16.6-6.6-25.5
		C392,1183.7,390.1,1181.7,387.2,1179.3z M547.1,724.7c-9.7,17.2-25.1,31.2-29.9,52.7C525.6,772.2,545.7,736.9,547.1,724.7z
		 M1114.5,470.3c-9.9,0.1-31.6,11.5-36,18.6C1089.8,482.3,1102.1,477.9,1114.5,470.3z M1176.6,452.4c-3.5,1.2-8.4-2.4-11.2,3
		C1169.9,457,1173.5,455.8,1176.6,452.4z M415.3,1086c-0.3-0.2-1.1-0.9-2-0.9c-2.6,0-3.5,2.1-3.8,4.2c-0.1,1.2,0.3,2.9,1.9,2.6
		C414,1091.5,414.6,1089.3,415.3,1086z M1123.8,466c-4.1-0.6-6.2,0.3-7.5,3C1119.2,469.8,1121,468,1123.8,466z"/>
	<path d="M714.4,2414.9c-9.3-16.1-14.4-32.8-26.1-45.6c-8.3-9-12.2-20.7-20.1-29.8c-1.5-1.7-2.2-3.8-2.6-6
		c-2-11.6-6.9-22.3-10.7-33.8c5.5,2.1,7.7,7.1,10.9,10.8c12.9,14.9,27.7,27.7,42.9,40c10,8.1,20,16.4,30.8,23.7
		c12.1,8.2,24,16.6,37.1,22.9c10.5,5.1,20.5,11.2,31.2,16c8.3,3.8,16.8,7.4,25.3,10.5c24.6,9.2,49.1,18.6,74.3,25.9
		c17.6,5.1,35.2,10.7,52.8,15.7c18.2,5.2,36.9,9,54.3,16.9c3.3,1.5,7.5,0.7,11.2,1.4c15.6,3,30.2,8.9,43.5,17.5
		c4.6,3,9.8,4.5,14.8,6.4c18.1,6.7,35,16.1,53.1,22.8c15.4,5.7,31.2,10.4,47.3,13.6c18.9,3.8,37.9,7.1,57.3,8.4
		c18.4,1.3,36.6,4,55.1,3.5c4-0.1,6.7,2,7.7,5.8c0.8,3-2.9,6.8-7.4,7.3c-12.9,1.5-25.8,2.9-38.8,3.9c-7.9,0.6-15.7,2.1-23.7,1.6
		c-25-1.5-49.9-2.4-74.5-8.4c-21.9-5.4-43.6-10.8-64-20.2c-17.3-8-33-18.7-48.8-29.3c-11.8-8-24.8-13.6-37.5-19.7
		c-3-1.5-6.5-2.2-10-2.9c-5.4-1-10.2-2.7-15.1-6.5c-7.9-6-18.4-7.6-28.2-10.1c-21.8-5.5-44.3-7.9-65.9-13.9
		c-20.1-5.5-39.6-12.8-58.2-22.4c-12.3-6.4-24.4-13.1-36.1-20.6c-10.6-6.8-22.4-11.5-33.8-17.1c-0.8-0.4-1.8-0.5-2.6,0.5
		c25.5,20.2,53.3,37,81,54c13.8,8.5,29,12.2,43.5,18.4c7.5,3.2,14.6,7.2,22.5,11.2c-4.7,3.5-7.5-0.8-11-1
		c-13.1-0.9-25.3-5.8-37.6-9.4c-15.2-4.4-30.7-7.7-45.5-12.9c-16.4-5.7-33-10.7-49.4-16.4c-10-3.5-20.5-6.1-30.5-9.8
		c-12.6-4.7-24.7-10.8-36.7-16.8c-10.5-5.2-20.6-11-30.7-17c-14.2-8.4-26.9-18.8-40.4-28.3c-33.7-23.6-62.4-52.7-89.4-83.4
		c-11.4-13-22.4-26.8-27.9-43.8c-6.3-19.6-12.4-39.2-17.9-59.1c-5.5-19.8-10.8-39.7-19-58.4c-6.2-14.1-12.6-28.1-22.4-40.5
		c-11.4-14.4-18.4-31.7-23.2-49.5c-5.5-20.5-8.3-41.5-9.8-62.7c-0.7-9.2-3.9-17.9-7.1-26.5c-8.8-23.4-22.4-44.4-33.4-66.6
		c-7.5-15.2-13.6-31.1-17.7-47.8c-2.5-10.1-3.8-20.5-6.8-30.4c-5.5-17.7-4.1-35.8-3.9-53.9c0.1-11.8,0.7-23.5,4.4-34.8
		c5-15.3,11-30.2,19.3-44.1c0.7-1.1,1.2-2.3,2-3.3c1.3-1.6,3-2.7,4.9-1.4c1.9,1.2,0.5,3,0,4.3c-2.7,7.4-3.9,15.3-6.6,22.4
		c-5.1,13.5-4.7,27.4-6,41.2c-1.6,17.7,0.3,35.6-2.6,53.3c-0.9,5.6,0.2,10.6,3.6,15.3c3,4.2,5.8,4.6,8.6,0.4c1.8-2.7,2.5-5.8,3-9
		c1.7-12.3,8-22.5,15.4-32c13.6-17.8,27.5-35.4,41.4-53c1.5-1.9,2.8-4.2,5.5-5c3.4,12.3,1.4,30.5-3.1,41.5
		c-5,12.4-12.5,23.4-18.8,35.1c-5.7,10.4-8.3,21.9-10.7,33.3c-0.9,4-0.9,8.1-2,12.2c-0.9,3.4-1.6,7.1-0.2,10.4
		c2.5,5.6,2.1,11.3,0,16.6c-3.2,8.2-1.3,16.3-0.6,24.5c0.2,2.9,2,3.7,4.5,3.7c2.6-0.1,4.2-1.3,4.5-4c0.3-3.8,0.2-7.7,0.9-11.4
		c1.8-9.2,3.9-18.5,6.2-27.6c0.6-2.4,2.1-4.5,3.9-6.7c1.3,5.3-0.5,10.6-0.6,15.8c-0.3,22.6,3.7,44.6,8.2,66.6
		c3.4,16.8,11.4,31.3,17.8,46.7c5.5,13.2,13.1,25.3,19.3,38.1c6.6,13.7,10.8,28.3,15.4,42.7c2.6,8.1,4.5,16.5,7.3,24.6
		c3.1,9,4.6,18.4,6,27.6c0.8,5.2,4.2,10.1,2.1,16.1c-6.5-2.2-8.9-8.3-12.4-12.8c-2.7-3.4-4.8-7.5-7.5-10.9
		c-7.9-10-9.9-21.8-12.6-33.8c-2.8-12.6-6-25.3-12.9-36.5c-4.9-7.8-10.3-15.3-15.5-22.8c-0.9-1.3-2.1-2.4-3.1-3.6
		c-2-2.2-4.5-2.8-6.8-1c-3.1,2.4-0.5,4.3,1,6.3c9.2,12.6,17.5,25.7,22.1,40.7c3.6,11.8,8.8,23.1,11.2,35.3
		c3.1,16.3,10.9,30.3,21.2,42.9c8.8,10.8,14,23.7,21.3,35.4c4,6.4,5.5,14.8,7.7,22.3c2,6.9,4,14,6.1,20.9c4,13.2,8.9,25.9,16,37.9
		c6.4,10.9,10.7,22.9,16.7,34c9.5,17.6,20.1,34.2,33,49.6c8.9,10.7,17.5,21.7,27.6,31.3c10.3,9.8,20.5,19.9,31.9,28.3
		c14.5,10.7,30.4,19.4,46.7,27.1C698,2407.9,704.9,2412.5,714.4,2414.9z M720.3,2394.8c13.6,19.7,28.7,37.4,54.1,41.4
		C758.8,2419.3,740.1,2406.3,720.3,2394.8z M387,1830.2c2.6-4.1,5.2-5.9,5.5-9.4c0.6-7.3,3.6-13.9,5.5-20.9c0.7-2.4,1.2-4.9,1.4-7.4
		c0.2-2.6-0.3-5.2-3.7-5.6c-2.8-0.3-4,1.8-4.6,3.9c-0.8,2.7-0.6,5.8-1.8,8.2C384.6,1808.6,386.4,1818.4,387,1830.2z M517.1,2230.6
		c4.9,21.5,20,35.7,30,52.8C545.8,2271.6,525.7,2236,517.1,2230.6z M1078.2,2518.9c6.6,8.4,26.7,18.6,35.1,18
		C1101.6,2530.9,1089.9,2524.9,1078.2,2518.9z M1163.9,2553.1c7.3,3.7,13.9,3.6,20.4,3.8C1177.9,2556.2,1172.6,2550.2,1163.9,2553.1
		z M415,1920.4c-0.7-1.8-1.1-4.3-4-4.2c-0.5,0-1.4,1.3-1.4,2.1c-0.1,2.3,1.2,4.2,3.3,4.8C414.1,1923.4,415.1,1922.1,415,1920.4z"/>
	<path d="M2286.4,593.2c8.9,18.7,16.4,36,29.1,50.4c2.8,3.2,5,6.4,7,10.1c2.7,5,5.1,10.2,9,14.5c1.4,1.6,2.7,3.8,3,5.9
		c1.6,11.7,7.4,22,10.4,34.2c-4.3-1.8-5.8-5.4-8-8c-13.4-15.8-29-29.2-44.8-42.3c-17.3-14.3-35.1-28.1-54.6-39.2
		c-13.7-7.8-27.6-15.3-41.9-22.2c-14.6-7.1-29.8-12.4-44.8-18.1c-15.3-5.8-30.8-11.3-46.6-15.9c-18.2-5.3-36.1-11.8-54.4-16.7
		c-12.2-3.3-23.8-8.5-36.5-10.3c-6.1-0.9-12.1-3.9-17.9-6.1c-9.6-3.7-19.8-4-29.3-6.8c-11.4-3.3-22.6-7.8-32.8-14.2
		c-8.9-5.5-18.8-9-28.7-12.5c-6.2-2.2-12.3-5.1-18.2-8c-16.8-8.3-34.3-14-52.4-19c-15.3-4.2-31-6-46.3-10.1
		c-7.2-1.9-14.5-1.7-21.7-2.4c-20.2-1.8-40.3-5.5-60.8-4.2c-1.3,0.1-2.6,0.1-3.8-0.2c-3.2-0.6-5.2-2.9-5.6-5.8
		c-0.4-2.6,1.4-4.7,4-5.8c1.4-0.6,2.9-1.4,4.4-1.5c23.1-1.8,46-6.6,69.2-5.1c22.1,1.4,44.3,2,66,7.9c12.5,3.4,25.1,6.4,37.5,10
		c16.6,4.8,32,12,46.7,20.8c14.6,8.8,28.3,19.2,43.4,27.2c11,5.8,21.7,12.9,34.7,14.5c5.5,0.7,10,3.8,14.8,7
		c7.9,5.3,17.9,7.2,27.5,9.5c20.6,5.1,41.8,7.6,62.3,12.9c21.4,5.5,42.1,13.3,61.9,23.5c12.3,6.3,24.3,13.3,36.1,20.5
		c12,7.3,25,13,38.5,18c-7.3-5.4-14.7-10.9-22-16.3c-20-14.5-41.6-26.5-62.4-39.8c-13.4-8.6-28.6-11.7-42.7-17.9
		c-7.2-3.1-14.3-6.5-21.8-11.8c5.6-1.6,9.1,2.1,13.2,2.3c4.3,0.2,8.7,1.1,13.1,2.4c15.1,4.6,30.4,8.6,45.5,13.1
		c16.4,4.8,32.7,9.9,49,15c12.6,4,25.3,8,37.9,11.9c13.3,4.1,26.3,9.8,39,16c12.8,6.3,25.6,12.4,37.6,19.9
		c40.1,25,77.6,53.3,110.3,87.7c14.5,15.1,28.7,30.4,40.7,47.6c6.6,9.4,10.7,19.8,14.6,30.6c6.9,19.1,11.6,38.8,17.4,58.1
		c5.2,17.2,9.8,34.7,16.9,51.1c6.2,14.4,12.6,28.7,22.6,41.4c11.2,14.2,18.1,31.2,23.1,48.6c5.8,20.1,8.1,40.9,10,61.7
		c0.7,8.1,3,16,5.7,23.9c8.8,25.6,23.1,48.3,35.6,71.9c2.2,4.2,4.2,8.5,5.7,12.9c3.8,11.7,8.5,23,11.8,34.9
		c3.2,11.6,4.6,23.5,7.8,35.1c3.8,13.9,4,28.4,3.1,42.6c-0.9,13.9-0.7,27.8-4.9,41.5c-2.7,8.9-6.3,17.4-10.1,25.6
		c-3,6.5-4.9,13.7-9.4,19.7c-1.9,2.5-3.2,4.7-7.2,3.7c-0.7-7.1,3.6-13,5.5-19.4c5.6-19.4,6.6-39.2,7.8-59.2
		c0.9-15.2-0.8-30.6,2.7-45.6c1.1-4.8-1.3-8.6-3.7-12.4c-3.3-5.4-6.4-5.3-9.5,0.1c-0.6,1.1-1.2,2.3-1.4,3.5
		c-2.4,15.8-10.4,28.6-20.2,41.1c-13,16.7-26,33.4-39.1,50.1c-1.2,1.5-2.3,3.1-4.1,3.8c-2.9-9.1-2-30.1,1.3-37.9
		c5.8-13.7,13.2-26.5,20.8-39.3c5.8-9.9,8.5-21.2,10.5-32.4c0.9-5,1.7-10,2.6-14.9c0.4-2.5,1.5-5.2,0.1-7.5
		c-3.3-5.8-2-11.9-0.3-17.4c2.2-7.3,1.6-14.4,1-21.7c-0.3-3.2-0.1-6.7-4.7-6.7c-4.7,0-4.4,3.4-4.6,6.7c-0.7,13.4-5.3,25.9-8.1,38.9
		c-0.3,1.4-1.6,2.6-2.9,4.7c-0.8-10.5,0.5-19.8,0.4-29.2c-0.2-11.4-2.6-22.5-3.9-33.7c-1.2-10.9-4.5-21.7-7.3-32.4
		c-3.1-12-9.7-22.5-14.3-33.8c-5.5-13.5-13.3-25.9-19.7-39c-6.7-13.4-10.5-27.7-14.9-41.8c-1.6-5.1-3.3-10.2-4.9-15.3
		c-5.4-16.6-7.6-33.9-11.8-50.8c-0.2-0.8,0.2-1.9,0.4-3.2c7,2,8.8,8.8,12.9,13.2c2.8,3,4.5,6.9,7.1,10c7.7,9.1,10.3,20.2,12.5,31.2
		c3.8,19.9,10.6,38.3,23.3,54.2c2,2.5,3.8,5.1,5.3,7.9c1.3,2.3,2.8,4.3,5.2,5.4c1.8,0.9,3.8,1,5.3-0.5c1.7-1.7,0.9-3.3-0.3-5.1
		c-5.2-7.6-10.5-15-15-23.1c-3.9-7-6.7-14.4-9-21.9c-3.6-11.5-8.3-22.6-10.6-34.5c-2.9-15-10.5-27.9-19.9-39.4
		c-9-11.1-14.4-24.3-22-36.2c-4.8-7.4-6.5-17.1-8.6-26c-2.2-9.2-4.4-18.7-7.9-27.2c-4.1-10.1-8-20.5-14-29.9
		c-6.6-10.4-10.5-22.2-16.4-33.1c-9.3-17.2-20-33.5-32.4-48.7c-12.4-15.3-25.4-29.9-40.1-43.1c-16-14.4-33.2-27.1-52.5-36.7
		C2311.9,605.1,2300.8,598.2,2286.4,593.2z M1887,468.6c-3.2-0.2-5.6-3.7-9.7-2.5c3,3.6,6.3,3.8,9.9,2.4c0.1,0.9-0.1,2.4,0.3,2.6
		c8.1,4.5,15.8,9.7,24.9,12.1c3.6,3.3,7.3,6.5,13.1,6.3c-4-3.2-7.2-6.9-12.4-7.1C1905.7,475.3,1896.3,472.1,1887,468.6z
		 M2225.5,571.6c15.5,17.1,34.2,30,54.1,41.4C2266.1,593.2,2250.8,575.8,2225.5,571.6z M2613.5,1178.9c-3.5,3-5.8,5.1-6,8.3
		c-0.3,7.4-3.7,14-5.4,21c-0.7,2.8-1.3,5.5-1.1,8.4c0.1,2,0.3,3.9,2.6,4.4c2.7,0.6,4.4-0.9,5.1-3.1c1.1-3.6,1.3-7.6,2.8-11
		C2615.6,1198.2,2614,1189.3,2613.5,1178.9z M2452.4,724.7c4.7,17.1,14.9,31.5,23.4,46.8c1.3,2.4,2.6,5.3,7.2,5.3
		C2478,756.2,2463.1,741.7,2452.4,724.7z M1834.9,455.2c-4.7-3-13.9-4.7-19.5-3.4C1822.1,451.3,1827.4,458.3,1834.9,455.2z
		 M2586.1,1084.6c-0.3,1.6-0.6,2.5-0.6,3.3c0.2,2,1.3,3.4,3,4.3c0.3,0.1,1.1-0.5,1.4-0.9c2-2.4,0.3-3.9-1.5-5.4
		C2588,1085.6,2587.4,1085.4,2586.1,1084.6z"/>
	<path d="M2233.9,2407.9c-7.5,0.5-13.9,3.8-20.2,6.9c-11,5.4-20.8,13-31.6,18.9c-10.8,5.9-21.8,11.4-33.1,16.2
		c-13.9,5.9-28.3,11.2-43.1,14.7c-15.1,3.5-30.5,5.6-45.7,8.9c-13.8,3-27.7,6-40.9,11.4c-1.2,0.5-2.8,0.7-3.4,1.6
		c-4.5,6.5-11.6,6.7-18.3,8c-3.4,0.6-6.6,2.1-9.8,3.5c-17.1,8.1-33.5,17.2-49.2,28c-15.6,10.7-32.4,19.7-50.5,26.3
		c-22.1,8.1-44.9,13-67.6,18.1c-5.6,1.2-11.4,1.5-17,1.7c-14.9,0.6-29.8,3.5-44.7,2.1c-15.5-1.4-31-2.1-46.3-4.8
		c-3.4-0.6-7.1-0.1-10.4-0.8c-3.4-0.8-7-2.9-6.5-6.9c0.5-3.7,3.3-6,7.5-6c5.1,0,10.2,0,15.3,0c11.8,0.1,23.4-1.6,35-3.2
		c7.8-1.1,15.8-1.4,23.7-2c7.6-0.5,15.2-1.4,22.4-4c7-2.5,14.3-2.1,21.5-3.8c27.5-6.5,53.8-16.2,79-28.9c6.2-3.1,13-5,19.4-7.6
		c6.8-2.8,13.1-6.5,19.5-9.8c13.5-6.9,27.4-12.2,42.8-13.7c7.7-0.8,15.1-4.4,22.5-7.1c11.9-4.4,24.3-7,36.4-10.7
		c9.9-3.1,20.1-5.8,30.1-8.8c20.6-6.1,41.6-11.6,61.5-19.6c20.2-8.1,41.1-14.3,60.7-23.9c21.7-10.6,42.9-21.8,63-35.1
		c13.2-8.7,25.3-18.8,37.5-28.9c10.2-8.5,20.6-16.8,29.7-26.5c7-7.3,13.7-14.9,22.1-24c-3.2,9.7-6.5,17.2-7.9,25
		c-2.5,13.5-11.2,23.8-17.4,35.4c-3.7,6.8-9.6,12.5-14.3,18.9c-8,10.8-11.1,24.1-19.7,35.8c6,0.8,10.2-1.7,13.4-3.6
		c17.5-10.1,36.3-17.9,52.7-30.1c15-11.1,29-23.3,41.9-36.8c12.8-13.5,24.9-27.7,35.4-43.1c12-17.5,22.6-35.8,30.6-55.5
		c1.1-2.6,2.1-5.3,3.9-7.6c7.2-9.4,10.4-20.9,15.2-31.4c3.3-7.2,5.3-15.6,6.7-23.6c1.7-9.8,7.2-18.3,8.6-28.1
		c0.2-1.7,1.8-3.3,2.9-4.9c9.8-15,18-30.9,28.9-45.2c7.6-9.9,9.7-22.5,13.2-34.4c5.4-18.5,10.4-37.3,20.5-54
		c3.6-6,7.5-11.7,11.5-17.4c1.4-2,2.9-3.8,0.6-5.7c-1.9-1.6-4.2-1.3-6.1,0.3c-1.4,1.2-2.7,2.7-3.8,4.2c-5.1,7.3-10,14.7-15.1,21.9
		c-3.4,4.7-5.1,10.1-7.1,15.5c-4.9,13.7-7.1,28-11.2,41.9c-1.1,3.6-2.7,6.9-5.1,10c-5.6,7.2-10.9,14.7-16,22.3
		c-1.7,2.5-3.6,4.3-6.3,5.3c-2-1.1-1.5-2.9-1.2-4.2c6.5-33.2,15.8-65.7,27.3-97.5c4-10.9,10.6-20.8,15.7-31.4
		c6.1-12.5,12.1-25.1,17.7-37.8c8.5-19.3,11.1-39.9,14.2-60.5c2.3-15.5,1.4-30.6,1.2-45.9c2.1-1,1.9,0.9,2.4,1.6
		c0.7,1,1.4,2.2,1.6,3.4c2.3,13,7.5,25.5,7.5,39c0,2.6,1,4.2,3.8,4.5c3.1,0.3,5-1,5.2-4c0.5-7.6,1.9-15.1-0.3-22.7
		c-1.8-6.3-3.5-12.7-0.1-19.2c0.9-1.7,0.5-3.7,0.2-5.6c-3.6-23.3-9.5-45.6-23-65.7c-10.3-15.2-16.3-32.2-14.2-51.1
		c0.3-3-0.5-6.2,0.7-9.3c3.9,0.5,5.1,3.8,7,6.2c13.7,17.3,27.3,34.8,40.9,52.3c7.7,9.8,13.4,20.6,15.8,33c0.2,1.2,0.3,2.5,0.6,3.8
		c1,3.5,2.5,7,6.4,7.5c3.7,0.4,3.6-3.7,5.3-5.8c3.1-3.8,3.3-8.1,2.4-12.6c-1.3-6.3-1.4-12.6-1.5-19c-0.4-21-0.7-42-3.6-62.8
		c-1.5-10.6-4.7-20.9-8.5-31c-0.4-1.2-1.3-2.4-1.2-3.5c0.2-1.9-3.2-4.4,0.5-5.5c2.5-0.8,3.9,1.3,5.3,3.2c4.7,6.4,7.6,13.9,10.8,21.1
		c7.6,17.1,13,34.7,13.5,54c0.4,14.6,0.2,29.2-0.4,43.8c-0.2,6.8-3.1,12.9-4.2,19.5c-3.2,20-8.6,39.5-16.2,58.1
		c-5.6,13.7-12.4,27-19.9,39.7c-8.5,14.5-15.7,29.4-21.8,45c-4.2,10.8-5.9,21.7-7.1,33.2c-3.3,31.5-8.1,62.8-24.5,90.8
		c-3.3,5.7-6.5,11.4-11,16.4c-6.2,7.2-9.8,16.2-13.9,24.7c-10.6,21.7-16.9,44.8-23.8,67.8c-5.4,17.8-10.8,35.7-16,53.6
		c-6.2,21.3-18.6,38.1-32.4,54.1c-19,22.1-39.6,42.6-61.9,61.5c-12.1,10.2-24.9,19.3-37.6,28.7c-15,11.1-30.6,21.4-47.2,30.2
		c-11.1,5.9-22.4,11.2-33.7,16.6c-14.2,6.8-29.4,10.7-44.2,15.8c-16.1,5.5-32.6,9.8-48.5,16.3c-7.6,3.1-15.7,5.2-23.7,6.5
		c-12.3,2-23.7,6.9-35.5,10.2c-11.3,3.1-23,4.5-34,8.6c-0.3,0.1-1-0.5-2.2-1.1c9.9-7,20.3-12.6,31.3-15.4c13.6-3.4,25.3-9.9,37-16.7
		c24-14.1,47.6-28.9,69.9-45.7C2233,2409.6,2233.4,2408.6,2233.9,2407.9z M1822.8,2555.7c4.1-0.3,8.7,1.7,12.6-3.2
		c-5.2-1.1-9.3-0.9-12.4,3.3c-2.6-0.3-5.2-0.5-7.5,1.1C1817.9,2556.9,1820.8,2559.2,1822.8,2555.7z M1925.1,2520.4
		c-2-1-4.3-1.8-6.3-0.4c-9.1,6.1-19.4,10.1-29.1,15.2c-1.6,0.9-3.5,1.8-2.8,4.3c-3.6-1.2-6.8-1.2-9.4,2.7c4,0.7,6.2-2.4,9.3-2.7
		c4.6-1.7,9.2-3.4,13.7-5.6c8.4-4.1,16-9.5,24.4-13.4c1.8-2.7,6.2-2.3,7.1-6.1C1929.7,2516.3,1924.4,2514.7,1925.1,2520.4z
		 M2279.6,2394.9c-19.7,11.7-38.7,24.5-54.1,41.6C2250.8,2432.1,2266.3,2415,2279.6,2394.9z M2613.2,1828.6
		c1.6-7.2,1.5-13.8,0.6-20.2c-0.9-6.2-3.1-12.2-5-18.2c-0.7-2.3-2.4-3.8-5-3.3c-2.3,0.5-2.8,2.4-2.7,4.3c0,1.9,0,3.8,0.4,5.7
		c1.7,8.3,5.6,16,6.3,24.7C2607.9,1824.3,2610.1,1826.5,2613.2,1828.6z M2452.4,2283.3c10.5-17,25.6-31.3,29.1-52.3
		C2469.2,2247,2458.8,2264,2452.4,2283.3z M2588.6,1915.6c-2,1.5-3.3,3.1-3.1,5.6c0.1,1,0.6,2.2,1.5,1.8c2.2-1,4.6-2.2,3.4-5.4
		C2590.1,1916.8,2589.2,1916.2,2588.6,1915.6z"/>
	<path d="M1006.1,657.2c-0.1,1.7,0.1,2.5-0.2,2.8c-5.6,5.5-11.7,10.8-15.8,17.6c-6,9.8-16,14.1-25.3,19.3
		c-11.6,6.5-23.4,12.6-35.3,18.5c-6.8,3.4-14.2,5.4-21.3,7.8c-11.4,3.7-22.2,9-33.8,12c-13,3.4-23.8,11.6-36.4,16
		c-1.4,0.5-3.2,1.3-3.9,2.5c-8.4,15-24.8,21.8-35.4,34.6c0.3-5.6,3.4-9.7,7.2-15.9c-11.2,6.2-19,13-26.7,19.8
		c-15.6,13.8-31.5,27.2-45.6,42.6c-15,16.4-27.7,34.5-40,52.9c-15.6,23.1-31.1,46.3-47.9,68.5c-11.8,15.5-25.2,29.8-37,45.4
		c-8,10.6-15.2,21.7-22,33.1c-5.6,9.5-11.6,18.9-16.3,28.9c-10.6,22.6-21.7,45-24.6,70.5c-0.9,8.2-2.2,16.3-2.5,24.6
		c-0.3,8.5-3,16.9-4.6,25.2c-2.5,12.2-3.4,24.4-5,36.7c-1.1,8.6-0.8,17.1-1.2,25.7c-0.1,2.1,0.3,4.3-1.7,7.1
		c-0.6-9.4-2.1-17.8-2.5-26.3c-1.3-34.1,2.4-67.9,7.4-101.6c3.5-23.8,10-47,21.3-68.5c2.8-5.3,4.4-11.1,7.9-16.1
		c0.2-0.3,0.4-0.6,0.4-0.9c-1.7-14.1,11-20.9,16.1-31.5c4.2-8.7,8.5-17.5,12.7-26.1c4.9-10.1,12.7-18.8,19.8-27.7
		c8.6-10.7,19.6-18.9,28.7-29c10.5-11.7,19.9-23.6,26-38.7c7.1-17.5,18.6-32.9,31.1-47.2c1-1.2,2.3-2.2,3.4-3.3
		c1.3-1.3,1.5-3,0.6-4.4c-1.2-1.9-3.3-1.9-5.1-0.9c-1.6,0.9-3.3,1.9-4.5,3.3c-13.3,14.9-26.1,30-34.8,48.3
		c-2.5,5.3-6.2,10.3-7.9,15.9c-3.4,11.4-13.6,16.9-20.6,25.3c-4,4.8-8.9,8.8-15.7,12.7c1.1-3.6,1.6-6.2,2.6-8.6
		c7.5-17.7,14.3-35.8,22.8-52.9c11.4-22.9,27.9-42,47.6-58.4c24.7-20.6,50-40.5,72.4-63.8c9.2-9.5,20.2-17.4,30.8-25.3
		c13.6-10.2,28-19.4,43-27.4c14.5-7.7,29.3-15,43.8-22.8c17-9.2,34.3-17.6,52.2-24.9c13.1-5.3,26.4-10.4,39.9-14.9
		c14.7-4.9,28.6-11.7,42.6-18.3c19.1-9,35.7-21.4,50.1-36.8c0.8-0.9,1.9-1.6,3.4-2.2c-3,6.9-5.3,13.9-7.1,21.1
		c-1.7,6.8-7.8,10.1-12.6,13.8c-17.5,13.6-35.4,26.7-53.1,40c-16.8,12.6-35.6,21.5-55.4,28.3c-12.6,4.3-24.3,10.6-36.3,16.3
		c-15.9,7.6-31.5,15.9-46.2,25.7c-1.3,0.9-2.5,1.8-3.5,3.3C906.4,711.6,958.6,690.4,1006.1,657.2z M740.1,802.5
		c3,0.4,4.4-0.5,5.1-1.9c3.1-6,7.3-10.9,13.4-14.1c1.9-1,3.3-2.9,4.9-4.3c1.3-1.2,2.1-2.8,1.2-4.2c-0.9-1.5-2.8-1-4.3-1.1
		c-4.7-0.2-6,4.3-8.8,6.5C745.7,788.1,741.6,794.3,740.1,802.5z M797.7,756.1c-0.2-1.3-0.7-2.5-2.1-2.7c-2.2-0.3-3.4,1-3.6,3.1
		c-0.1,1.6,1.1,2.1,2.5,2C796.1,758.5,797.6,758.1,797.7,756.1z M716.1,822.7c0.8-2.2,0-2.8-0.9-3.1c-1.5-0.5-2.1,0.8-2.8,1.8
		c-0.8,1.4,0.5,1.6,1.2,1.8C715,823.7,716,823,716.1,822.7z"/>
	<path d="M1611.6,2003.3c15.8,0.1,27.1-12.4,42.3-14.3c2.6-0.3,5.2-2.3,7.6-3.8c2.5-1.5,4.9-2.9,7.8-3.4c23.3-4.1,44.9-12.9,66-23.3
		c0.4-0.2,1.1,0.1,1.8,0.1c-0.4,2.5-2.5,3.9-4.2,4.7c-11.4,5.3-19.5,14.9-29.7,21.8c-1.6,1.1-3.2,2.3-4.2,3.9
		c-5.9,8.8-14.7,13.8-23.9,17.9c-13.1,5.8-24.8,13.7-36.9,21.1c-10.5,6.4-21.5,12.1-32.6,17.4c-6.5,3.1-12.8,6.6-19.4,9.6
		c-15,6.7-30.8,9.2-46.6,12.3c-7.4,1.4-15.2,1.4-22.8,1.7c-16.1,0.8-32.1-1.3-48.1-2.9c-12.2-1.3-24.2-4.3-36.1-7.3
		c-14.1-3.5-28-7.7-42-11.7c-6.4-1.8-12.9-3.4-19-6c-7-3.1-14.3-5-21.5-7.3c-10.5-3.4-20.3-8.6-30.6-12
		c-11.5-3.7-21.6-10.4-33.3-13.4c-7.4-1.9-13.5-6.8-20.3-10.1c-10.2-5-20-11.1-29-18c-10.8-8.2-20.3-18-28.1-29.2
		c-11.9-17.1-23.3-34.6-36.1-51c-10.7-13.6-22.2-26.6-34.1-39.3c-16.6-17.8-33.5-35.3-49-54.2c-1-1.2-2.9-2.1-2-3.8
		c2.7-5.7-1.4-9.5-3.3-14.1c-5-11.7-9.7-23.5-12.2-36c-1.4-7.4,0.5-14.7,1.8-21.7c2.6-14.1,2.9-28.4,5.1-42.5
		c1-6.4-0.8-12.6-1.6-18.9c-2.8-19.9-8.2-39-15.4-57.7c-4.4-11.3-6.2-23.4-7.6-35.2c-0.9-7.3,2-15,3-22.5
		c2.7-19.3,4.4-38.7-1.5-57.7c-3.2-10.1-5.9-19.9-6.5-30.5c-0.5-8.1,0.4-15.8,3.4-23.2c7.7-18.8,15.4-37.5,19.6-57.5
		c1.4-6.5,4.2-12.4,7.7-18.3c5.7-9.9,7.8-21.4,10.6-32.4c0.3-1.3,0.6-3.4-1.5-3.9c-1.7-0.4-3.2,0.7-3.9,2.1
		c-0.9,1.7-1.7,3.5-1.9,5.3c-1.4,12.8-7.3,24.3-11.6,36.2c-1.9,5.4-3.7,10.7-4.5,16.5c-1.2,9.2-5.3,17.8-9.5,25.8
		c-3.6,7-6.7,14.3-10.3,21.3c-6.3,12.1-6.6,24.9-5.5,37.9c0.8,9.2,3.5,18.1,5.1,27.1c4.1,22.3,0.8,44.3-2.7,66.3
		c-4.3,27.6-4.4,54.9,8.1,80.8c1.8,3.6,1.3,8.3,5.8,11.9c-1.6-15.6-3.2-30.3-4.8-46.5c3.1,2.5,3.7,4.9,4.4,7
		c6.2,18,10.3,36.7,13.2,55.5c1.6,10.4-1.3,20.8-2.3,31.2c-0.9,10.1-2.2,20.2-4.1,30.2c-1.8,9.4-0.6,18.3,2.9,27
		c1.4,3.5,2.3,7.2,3.4,10.8c-1.8,1.4-2.5-0.2-2.9-1c-10.9-22.9-20.1-46.3-24.3-71.6c-2-12.2-2.8-24.5-5.9-36.6
		c-2.3-9-1.1-19-3.3-28.3c-2.7-11.7-5-23.6-7.8-35.3c-5.8-24.1-11.1-48.3-9.2-73.3c1.2-16.5,5.9-32.4,11.4-48
		c3.6-10.1,7-19.8,8.2-30.8c2-18.4,4.9-36.8,8.8-55.1c5.3-24.9,16.4-46.8,29.1-68.3c7.8-13.2,17.7-24.7,28-35.5
		c9.9-10.4,20-20.9,30.5-30.9c13-12.3,28.3-20.8,42.9-30.5c8.6-5.7,15.6-13.1,23.2-19.7c21.6-19,45.3-34.8,69.8-49.7
		c8.4-5.1,17.4-9.2,26.1-13.7c14.3-7.5,28.3-15.5,42.8-22.5c12.5-6,25.1-11.8,38.1-16.9c12.4-4.8,24.7-9.6,37.5-13.1
		c9.1-2.5,18.3-4.9,27.3-7.6c9.2-2.8,18.5-4.2,27.8-5.9c9-1.7,18.2-2.4,27.4-2.8c14.9-0.6,29.9-1.4,44.7-0.6c13,0.7,26-0.3,38.9,2.1
		c4.6,0.9,9.5,0.2,14.3,0.6c9.4,0.9,18.7,2.6,28.1,2.9c6.1,0.2,10.8,3.4,16.3,4.8c14.3,3.8,28.5,8,42.4,13.2
		c7.3,2.7,14.5,5.9,22.2,7.9c7.8,2,15.1,6.5,22.2,10.6c15.1,8.7,29.8,18.1,43.3,29.1c11.5,9.4,22.9,18.9,32.3,30.6
		c3.4,4.2,7.8,7.5,11.8,11c12.5,10.8,23.2,23.2,33.2,36.2c3.8,4.9,8.6,9.2,13.1,13.6c6.8,6.8,12.4,14.6,17.2,22.7
		c5.5,9.1,11.6,18,15.8,28c5.7,13.7,11.7,27.3,17,41.1c3.6,9.4,9.1,18.1,13.6,27.2c14.9,30.3,26.5,61.8,34.3,94.7
		c3.3,13.9,8.7,27,13.5,40.3c2.1,5.9,4.3,12,6,17.9c2.2,7.7,5.8,14.7,8.6,22c3.2,8.3,6.2,16.7,8.1,25.1c3.7,16.2,7.8,32.2,8.4,49.2
		c0.5,16-1.6,31.5-2.6,47.2c-0.4,7.1-3.6,13.6-6.1,19.9c-7.1,18.2-14.3,36.4-24.3,53.4c-8.9,15.2-16.4,31.3-22.7,48
		c-6.5,17.4-12.6,35.4-23.3,50.7c-8.8,12.7-17.4,25.6-27.8,37.2c-11.2,12.4-23.7,23.7-34.6,36.2c-7.6,8.7-17.3,14.7-24.9,23
		c-6.8,7.4-16,11-23.2,17.6c-6.4,5.8-15.4,7.2-23,11.1c-12.3,6.2-25.1,11.6-37.9,17.1c-7.2,3.1-14.5,5.8-22.1,8
		c7.6-7.3,15.6-14,25.3-18.3c5.5-2.4,10.8-5.3,16-8.3c16.6-9.9,32.6-20.7,50.1-29.1c9.4-4.5,17.4-11.3,24.3-19.4
		c7.1-8.4,14.9-16.3,21.9-25c11.3-13.9,19.7-29.5,28.9-44.6c4.3-7,8.5-14.1,11.4-21.9c4.5-12.3,13-22.5,19.6-33.7
		c5-8.4,9-17.3,11.5-28.8c-8.7,7.3-13.3,15.7-19.5,22.6c-10.2,11.4-16.8,25-23.7,38.7c-10.6,21.2-22.9,41.6-38.1,60
		c-9.6,11.8-19.2,23.7-30.3,34.2c-9.4,8.9-20.8,14.5-32.7,18.7c-10.2,3.6-20.1,7.5-28.9,14c-2.5,1.9-5.4,3.5-8.4,4.5
		c-15.8,5.1-29.7,14.2-45.3,19.7c-14.3,5-28.1,11.7-43.4,13.3c-0.9,0.1-2.1,0-2.8,0.5c-8.5,6.4-19.4,7.5-28.4,12.9
		c-5.6,3.4-10.8,7.7-18,8C1615.6,1997.6,1612.9,2000.5,1611.6,2003.3z M1930.5,1663.2c2,10.5,7.9,19.3,11.4,29.1
		c1.6,4.4,1.8,8.4,0.7,13c-1.6,6.7-2.4,13.7-3.4,20.6c-0.5,3.6,0.9,6.6,4.6,7.2c3.9,0.7,5.6-2.5,6.6-5.6c1-3,1.7-6.2,2.1-9.3
		c1.1-9.4,4.6-18.8,1.5-28.3c-3.3-9.9-6.4-19.9-9.6-29.9c-6.5-19.9-13.3-39.5-13.4-61.1c0-9.7-0.2-19.7-1.4-29.5
		c-3.1-24.8-4.7-49.8-10.6-74.2c-2.8-11.7-3.7-23.8-6.8-35.4c-5.8-21.7-9.1-44.1-16.3-65.4c-0.7-2.1-3.2-4.1-1.2-7
		c4.6,3.7,8.2,8.2,10.8,13.2c3.6,7.1,8.1,13.6,13,19.9c5.7,7.1,8.3,15.6,10,24.4c1.8,9.7,3.2,19.4,7.4,28.5
		c6.4,14.1,12,28.7,19.4,42.3c1.7,3.1,2.7,6.2,3.8,9.6c3.5,11.1,3.1,22.5,4.4,33.9c1.7,14.5,2.6,29.1,2.6,43.6
		c0.1,16.8-2.6,33.4-6.2,49.9c-1.2,5.2-1.8,10.5-0.1,16.5c8.3-5.7,13.9-12.6,15.6-22.1c2.3-12.5,4.2-24.9,4.3-37.8
		c0.1-18.8-0.5-37.4-6.1-55.6c-1.5-4.8-2.4-9.8-3.4-14.7c-0.3-1.2-0.2-2.4-0.4-3.6c8.3-0.5,1.2-5.1,1.7-7.5c0.3-1.7-1.8-3.9-2.8-5.9
		c-10.3-18.2-18.5-37.4-26.1-56.8c-6.1-15.5-7-32.6-13.4-48.3c-3.1-7.7-6.2-15.3-10.6-22.2c-2-3.1-3.8-8.1-9.5-4.5
		c-1.7,1.1-2.8-1-3.7-2.1c-2.9-3.4-6.2-6.3-9.7-9.1c-4.6-3.6-8-8.2-10.1-13.6c-3.8-9.4-7.3-18.9-10.7-28.3
		c-6.7-18.5-13.2-36.9-23.8-53.5c-13-20.4-28-38.9-49.3-51.5c-5.2-3.1-11.2-4.7-16-8.3c-8.4-6.2-17-12-25.8-17.7
		c-12.3-8-25.5-14.7-39.7-16.8c-13.3-2-24.6-7.7-36.4-12.6c-10.7-4.5-21.1-10-31.8-14.5c-11.6-4.9-23.5-9.1-35.2-13.8
		c-15.8-6.5-32.2-11.2-48.3-17.1c-17.9-6.5-36.9-5.7-55.4-7.4c-27.1-2.5-53.8,2.5-80.1,8.2c-22.2,4.7-44.2,10.7-66.1,16.7
		c-10.3,2.8-20.5,6.5-30.4,10.5c-14,5.7-23.4,17.2-32.8,28.2c-8.5,10-19,17.5-28.9,25.7c-2.4,2-5.3,3.3-8.4,4.4
		c-11,3.9-22,7.7-32.6,12.5c-12.9,5.9-26,11.2-39,16.7c-8,3.4-16.1,6.8-23.3,12.3c-8.5,6.4-13.2,15.2-17.9,24.1
		c-5.9,11.1-10.4,23.1-17.7,33.4c-6.6,9.3-13.9,18.2-19.4,28.1c-5.6,9.9-13.4,18.3-17.6,29.2c-5.4,14.1-11.2,28.1-16,42.5
		c-4.3,12.9-6.1,26-4.7,39.2c1.9,19.3,1.2,38.6,1,58c-0.1,12.4-0.6,24.7,1.7,37c3.2,17.4,4.7,35.1,6.5,52.8
		c1.3,12.6,3.1,25.1,4.9,37.6c2.4,17.3,4.7,34.6,4.6,52.2c-0.2,25.5-2.9,51.1-0.6,76.6c0.9,10,1,20.6,9.5,27.8
		c5.3,4.5,10.2,9.3,15,14.3c12.5,13.2,28.1,22.4,41.8,34.2c19,16.4,37.1,33.6,55.1,50.9c9.6,9.2,18.5,19.1,27.7,28.6
		c7.4,7.7,15.3,13.9,24.4,19.1c8.3,4.7,16.9,8.4,25.8,11.9c14.7,5.8,28.7,13.1,43.1,19.7c17.3,7.9,35.4,13.9,53.9,18
		c27.9,6.2,56.2,9.3,84.8,9.9c14.9,0.3,29.8-0.1,44.4-3.7c16.3-4.1,31.9-10.5,48.5-12.9c12.8-1.9,25.4-5.4,38.4-6.7
		c13-1.3,25.9-4.2,37.4-10.2c13.9-7.2,27.1-15.9,41.5-22.3c13-5.8,26-11.5,39.3-16.5c11.2-4.2,22.1-9.2,32.7-14.8
		c8.4-4.4,15.7-10.1,23.3-15.8c11-8.4,22-16.7,31.9-26.5c10.7-10.6,19.2-22.7,27.6-34.9c9.7-14,18.4-28.8,28.6-42.5
		c7.4-9.9,13.6-20.6,21.1-30.2c4.7-6,7.8-13.3,13.3-18.5c13.7-13.3,16.9-30.9,20.4-48.2C1927.8,1687.8,1929.9,1675.7,1930.5,1663.2z
		 M1390.6,1126.8c4.2,1.5,7.5,0.7,10.7-0.8c9.6-4.3,20.4-4.3,29.9-9c1.6-0.8,3.8-0.3,5.6-0.6c13.5-2,27.2-1.6,40.6-4.1
		c7.5-1.4,15.1-3.6,22.5-3.2c12.3,0.7,24.7,0.7,36.9,3c18.9,3.5,37.8,7.5,56.8,10.4c14.7,2.2,29.2,5.9,43.5,9.9
		c15.8,4.5,31.4,9.3,46.8,15.1c14.4,5.5,27.6,12.9,40.1,21.1c23.5,15.6,49,27.4,72.6,42.8c2.4,1.6,5.5,3.2,9.6,2.7
		c-6.5-7.4-11.8-15.4-20.5-19.7c-13.4-6.6-25.4-15.7-37.2-24.4c-11.8-8.7-23.5-17.1-36.3-24.2c-5.2-2.9-9.9-6.9-15.6-9
		c-13.1-4.8-26.3-9.1-40-11.9c-4.9-1-9.4-3.5-14.7-3.8c-14.6-0.8-29-3.1-43.3-5.7c-16.5-2.9-33.3-4.5-49.7-7.7
		c-11.9-2.2-23.8-4-35.8-4.9c-8.2-0.6-16.3-0.6-24.5,1.9c-7.8,2.4-16.1,3.6-24.2,4.2c-15.8,1.1-31.6,0.8-46.4,7.7
		c-1.1,0.5-2.6,0.1-3.7,0.6C1406.8,1120.5,1397.9,1120.9,1390.6,1126.8z M1569.7,2021.1c-1.5-0.3-2.2-0.7-2.7-0.6
		c-16.9,5-34.5,4.5-51.7,7.1c-8.3,1.3-17.1,1.5-25.5-1.7c-22.6-8.7-46.5-12.4-70-16.8c-28.3-5.3-56.6-10.6-85-15.3
		c-4-0.7-6.9,0.3-8.4,4.3c2,2.3,4.8,2.7,7.6,3.2c16.9,2.9,33,8.7,49.5,13.2c29.3,8,57.7,19.1,88.5,21.8c20,1.7,39.9,3,59.6-0.7
		C1544.8,2033.1,1557.5,2028.7,1569.7,2021.1z M1351.9,1132.4c-11,3.1-17.5,9.1-24,15c-6.3,5.7-11.8,12.2-19.4,16.4
		c-8.6,4.7-16.2,11-24.3,16.4c-10.4,7-20.1,15-32.9,18.5c-9.6,2.6-19.1,6.6-28.5,10.4c-3,1.2-5.9,2.4-7.4,5.5
		c-0.7,1.4-1.2,3,0.2,4.4c1.4,1.4,3,1.1,4.2,0c3.9-3.6,9-4.3,13.8-5.9c11.7-3.9,23.8-7.2,34.6-13.1c12.2-6.6,23.7-14.8,34.4-23.7
		c15.5-13,28.9-28.3,45.9-39.5C1349.5,1136.2,1350,1134.9,1351.9,1132.4z M1874.1,1271.1c8.4,30.2,16.3,58.6,24.6,88.2
		c3.3-3.4,4.2-6.2,3.7-9.4c-0.6-3.4-1.2-6.9-2.4-10.2c-3.9-11.4-6.4-23.1-8.5-35C1889.5,1292.6,1885.1,1281.1,1874.1,1271.1z
		 M1264.1,1974.3c1.7,5.8,5.5,7.5,9.3,8.8c6.9,2.4,13.8,4.5,20.8,6.4c2.7,0.8,5.6,1.1,8.4,1.3c2,0.1,3.8-0.9,4.4-3
		c0.6-2.2-0.9-3.6-2.5-4.6c-1-0.6-2.3-0.9-3.5-1.3c-7.3-2.2-14.6-4.2-21.8-6.4C1274.6,1974.1,1270,1973.7,1264.1,1974.3z
		 M1064.8,1709.2c2.5-11.1-0.5-20.9-4.9-30.4c-0.7-1.6-2.4-3.6-4.4-2.8c-2.2,0.8-3,3-2.3,5.5c2.3,8.2,4.6,16.4,7.1,24.5
		C1060.7,1707.5,1061.8,1708.7,1064.8,1709.2z M1234.8,1944.9c-1-13.1-17-29.2-29.3-28.8C1218.4,1923.2,1223.8,1936.1,1234.8,1944.9
		z"/>
</g>
</svg>
